<svg xmlns="http://www.w3.org/2000/svg" width="600.2" height="153" viewBox="0 0 600.2 153">
  <path d="M46.7 98.3c3.4.9 6.3 2.1 8.8 3.5 1.2.8 2.2 1.2 2.8 1.4.6.2 1.3.3 2.1.3 1.7 0 3.5-.9 5.4-2.9l7.3-7.6c.3-.3.4-.6.4-1 0-.5-.3-1-.9-1.6a43.2 43.2 0 00-15.9-8.7 66.7 66.7 0 00-33.4-1.8c-4.1.9-7.6 2.2-10.8 4A22.2 22.2 0 005 91a18.7 18.7 0 00-2.8 10.5c0 3.6.8 6.7 2.4 9.3 1.6 2.6 3.9 4.8 6.7 6.6a39 39 0 0010.1 4.4c3.9 1.1 8.1 2 12.7 2.6 3.3.5 6 .9 8.1 1.4 2.1.4 3.8.9 5 1.3 1.2.4 2.1.9 2.5 1.4.4.5.6 1.2.6 1.9 0 1.5-.9 2.6-2.8 3.2a54 54 0 01-20.3-.4c-3.5-.9-6.6-2.1-9.1-3.6-1.2-.8-2.2-1.2-2.8-1.4-.6-.2-1.3-.3-2.1-.3-1.7 0-3.5 1-5.4 2.9l-7.4 7.7c-.3.3-.4.6-.4 1 0 .5.3 1 .9 1.6 1.8 1.8 4.1 3.5 6.9 4.9 2.8 1.5 6 2.7 9.6 3.7a94.9 94.9 0 0024.7 3.3h30.2c.5 0 .8-.2 1-.6l.1-.7V135c0-4.9-.6-8.9-1.7-12.1a19.3 19.3 0 00-12.5-12.4c-3-1-6.4-1.9-10.1-2.4-7.7-1.2-13.8-2.2-18.3-3.1-4.5-.9-6.7-2.3-6.7-4.1 0-2.6 3.6-3.9 10.9-3.9 4.5 0 8.3.4 11.7 1.3m106.9-87.5c0-5.9-4.8-10.7-10.7-10.7h-11.4a2 2 0 00-1.5.6l-22.7 21.4a43.2 43.2 0 01-29.8 11.4c-12 0-22.9-4.5-30.8-12.4L29.8 5.2A19 19 0 0017.1 0H3.6C2.4 0 1.5 1 1.5 2.1v60c0 5.9 4.8 10.7 10.7 10.7H19.1c1.2 0 2.2-1 2.2-2.2V49.2c0-5.6 4.6-10.2 10-10.2 10.2 0 17.5 8.8 24.2 14.6 8.1 7.2 14.4 14.1 22 14.1 7.7 0 13.9-6.9 22-14.1 6.6-5.8 13.9-14.6 24.2-14.6 5.5 0 10 4.6 10 10.1V62c0 5.9 4.8 10.7 10.7 10.7H151.3c1.2 0 2.2-1 2.2-2.2.1.3.1-59.2.1-59.7m373.8 55v5.1c0 1.3-.6 2.1-1.7 2.1h-15.9a13 13 0 01-7.6-2.6l-24-19a8.7 8.7 0 01-2.7-6.5v-7.8c0-1.3.4-2 1.3-2 .8 0 2 .5 2.6.7l2.9.9c2.5.8 4.9 1.2 7.3 1.2 5 0 8.9-2.2 10.2-5.7 1.2-3.3-2.1-10.8-13.1-13.6-8.2-2.1-15.9-.5-18.1 3.6l-.5 1.3c-.2.6-.2 1.6-.2 2v29.8c0 4.5-.7 8.6-3.5 12.3a13 13 0 01-6.2 4.7 17.5 17.5 0 01-9.2.1c-.7-.4-.7-1.1-.7-1.8V1.7c0-.9.7-1.6 1.6-1.6h29.4a50.3 50.3 0 0128.2 9.3c4 2.8 7.3 6.2 9.8 10.1 2.5 3.8 3.8 8 3.8 12.3 0 4.7-1.4 8.4-4 11.4-4.2 4.8-8.8 6.6-10.2 7.5l8.1 6.4c7.6 6 11.4 7.1 11.4 7.1.4.1 1 .9 1 1.6M589 54h-21.1c-3 0-5.7-.8-8.4-1.9a30 30 0 01-6.8-5.1 24 24 0 01-6.1-16c0-3.8 1.1-6.8 3.2-8.8l2.3-1.7c1.1-.6 2.3-1 3-1.1a18.4 18.4 0 018.2 0 20 20 0 017 2.9 38 38 0 019.1 8.3h-22c-1.3 0-2 .6-2 1.7 0 2.3.3 3.7 1.2 5.6.9 1.9 5.1 8.3 13.8 8.3h20.5c3.6 0 6.1-.9 7.4-2.9a9 9 0 001.8-6.1 28 28 0 00-3.3-12.7A44.9 44.9 0 00559 .2h-30.1c-.9 0-1.6.7-1.6 1.6v30a40.7 40.7 0 0012 29 41.8 41.8 0 0028.9 12.3h30.4c.9 0 1.6-.7 1.6-1.6v-6.1c0-3.5-1-6.3-3-8.3-2-2.1-4.7-3.1-8.2-3.1M370 .1c-1.1 0-1.7.7-1.7 2v29.6c0 5.7 1.2 11.1 3.6 16.3A46.3 46.3 0 00395 71a38.7 38.7 0 0028.9 1.1 28.2 28.2 0 0016.3-16.3 38.4 38.4 0 00-1.3-29.2 46.3 46.3 0 00-23.1-23 38.7 38.7 0 00-16-3.4H370zm21.5 22.3a11 11 0 018.4-3.4c2.7 0 5.3.7 8 2.2a32.5 32.5 0 0112.5 13.5c1.4 2.8 2.1 5.7 2.1 8.6 0 3.6-1.1 6.6-3.2 8.9a11 11 0 01-8.5 3.4c-2.7 0-5.3-.7-8-2.2a32.5 32.5 0 01-12.5-13.5 19.4 19.4 0 01-2.1-8.6c.1-3.7 1.1-6.6 3.3-8.9m-50.9 68.4c0-5.9-4.8-10.7-10.7-10.7h-11.3a2 2 0 00-1.5.6l-22.7 21.4a43.2 43.2 0 01-29.8 11.4c-12 0-22.9-4.5-30.8-12.4l-16.9-15.9c-3.2-3-7.6-5-12.7-5.2h-13.6c-1.2 0-2.1 1-2.1 2.1v60c0 5.9 4.8 10.7 10.7 10.7H206.1c1.2 0 2.2-1 2.2-2.2v-21.4c0-5.6 4.6-10.2 10-10.2 10.2 0 17.6 8.8 24.2 14.6 8.1 7.2 14.4 14.1 22 14.1 7.7 0 13.9-6.9 22-14.1 6.6-5.8 14-14.6 24.2-14.6a10 10 0 0110 10.1V142c0 5.9 4.8 10.7 10.7 10.7H338.3c1.2 0 2.2-1 2.2-2.1.1.2.1-59.3.1-59.8M181 16.9v-5.5c0-3.5-1-6.3-3-8.3-2-2-4.8-3-8.3-3h-7c-1.1 0-1.7.7-1.7 2V17c0 1.3.6 2 1.7 2h16.6c1.2-.1 1.7-.7 1.7-2.1m0 54.4V37.1c0-3.5-1-6.2-3-8.1-2-2-4.8-3-8.3-3H163c-1.3 0-2 .6-2 1.7v34c0 3.5 1 6.3 3 8.3 2 2 4.8 3 8.3 3h6.7c1.4 0 2-.6 2-1.7m40.3.5V56.4c0-.7-.1-1.1-.4-1.3l-1.6-.6c-1.4-.3-2.8-.8-4.1-1.7a16.3 16.3 0 01-5.8-6.8c-.6-1.4-.9-2.8-.9-4.2V11.4c0-3.5-1-6.3-3-8.3-2-2-4.8-3-8.3-3h-6.7c-1.3 0-2 .6-2 1.7v40.6c0 4.2.8 8.1 2.5 11.7a33.8 33.8 0 0028.4 19.5c1.2.1 1.9-.5 1.9-1.8M342 36.1c0 2.5-1 4.4-2.9 5.9a12.3 12.3 0 01-7.8 2.2c-2.8 0-5.5-.5-8.1-1.6-2.6-1.1-5-2.4-7.1-4A19.3 19.3 0 01311 33a11.4 11.4 0 01-1.9-6.1c0-2.8 1.1-4.8 3.3-6.1 2.2-1.3 4.7-2 7.4-2 2.8 0 5.5.5 8.1 1.6 2.7 1.1 5.1 2.4 7.2 4.1 2.1 1.7 3.8 3.5 5.1 5.6 1.1 2 1.8 4 1.8 6m18.3 11.1a29.2 29.2 0 00-1.3-24.7 39.6 39.6 0 00-9.4-11.5A47 47 0 00320.2.2h-29.6c-1.1 0-1.7.6-1.7 1.7v59.9c0 3.5 1 6.3 3 8.3 2 2 4.8 3 8.3 3h7c1.1 0 1.7-.7 1.7-2V54.8a36.2 36.2 0 0023 8.2c4.6 0 8.7-.6 12.5-1.9a28 28 0 009.6-5.4c2.8-2.4 4.9-5.2 6.3-8.5m-14.4 77.9c0 5.1 1.3 9.3 3.8 12.9 2.5 3.5 5.8 6.4 9.8 8.6 4 2.2 8.4 3.9 13.2 4.9a69 69 0 0014.1 1.5h31c1.1 0 1.7-.7 1.7-2v-28.7c0-5.8-1-11.3-2.9-16.4a39 39 0 00-21.2-22.4 43.5 43.5 0 00-17.4-3.3h-28c-1.3 0-2 .6-2 1.7v5.9c0 3.5 1 6.3 3 8.3 2 2 4.8 3 8.3 3h19.4c3.3 0 6.3.7 9.1 2.1 2.7 1.4 4.9 3.3 6.5 5.6h-18.6a43 43 0 00-22.1 4.7c-5.2 3-7.7 7.6-7.7 13.6m22 4.4c0-1.4.8-2.4 2.3-3 1.5-.6 3.9-.9 7.1-.9h22.1a9.3 9.3 0 01-4.8 8.1 21 21 0 01-10.5 2.5 30 30 0 01-11.8-1.9c-2.9-1.3-4.4-2.9-4.4-4.8m-186.6 21.7v-30.6c0-3.5-1-6.3-3-8.3-2-2-4.8-3-8.3-3h-33c-1.3 0-2 .6-2 1.7a14.4 14.4 0 005 11 16.1 16.1 0 0010.6 4.2H162v7.9h-12c-3.1 0-6-.7-8.7-2.1a26.4 26.4 0 01-12.5-13.2 22.6 22.6 0 01-1.8-8.7c0-3.6 1.1-6.4 3.4-8.3a13 13 0 018.6-2.9h38.9c1.3 0 2-.6 2-1.7v-5.8c0-3.5-1-6.3-3-8.3-2-2-4.8-3-8.3-3h-29.4c-4.7 0-9 .7-12.9 2.2a28.2 28.2 0 00-16.8 15.8c-1.6 3.8-2.4 8-2.4 12.6a42.2 42.2 0 0026.5 38.8 41.4 41.4 0 0016.4 3.3h29.4c1.3.2 1.9-.4 1.9-1.6m74.2-79.4V56.4c0-.7-.1-1.1-.4-1.3l-1.6-.6c-1.4-.3-2.8-.8-4.1-1.7a16.3 16.3 0 01-5.8-6.8c-.6-1.4-.9-2.8-.9-4.2V11.4c0-3.5-1-6.3-3-8.3-2-2-4.8-3-8.3-3h-6.8c-1.3 0-2 .6-2 1.7v40.6c0 4.2.8 8.1 2.5 11.7a33.8 33.8 0 0028.4 19.5c1.3.1 2-.5 2-1.8m26-54.9v-5.5c0-3.5-1-6.3-3-8.3-2-2-4.8-3-8.3-3h-7c-1.1 0-1.7.7-1.7 2V17c0 1.3.6 2 1.7 2h16.6c1.2-.1 1.7-.7 1.7-2.1m0 54.4V37.1c0-3.5-1-6.2-3-8.1-2-2-4.8-3-8.3-3h-6.7c-1.3 0-2 .6-2 1.7v34c0 3.5 1 6.3 3 8.3 2 2 4.8 3 8.3 3h6.7c1.4 0 2-.6 2-1.7M100.3 96.9v-5.5c0-3.5-1-6.3-3-8.3-2-2-4.8-3-8.3-3h-7c-1.1 0-1.7.7-1.7 2V97c0 1.3.6 2 1.7 2h16.6c1.2-.1 1.7-.7 1.7-2.1m0 54.3V117c0-3.5-1-6.2-3-8.1-2-2-4.8-3-8.3-3h-6.7c-1.3 0-2 .6-2 1.7v34c0 3.5 1 6.3 3 8.3 2 2 4.8 3 8.3 3h6.7c1.4.1 2-.5 2-1.7"/>
</svg>
