<?xml version="1.0" standalone="no"?>
<!DOCTYPE svg PUBLIC "-//W3C//DTD SVG 20010904//EN"
 "http://www.w3.org/TR/2001/REC-SVG-20010904/DTD/svg10.dtd">
<svg version="1.0" xmlns="http://www.w3.org/2000/svg"
 width="1350.000000pt" height="1374.000000pt" viewBox="0 0 1350.000000 1374.000000"
 preserveAspectRatio="xMidYMid meet">
<metadata>
Created by potrace 1.10, written by Peter Selinger 2001-2011
</metadata>
<g transform="translate(0.000000,1374.000000) scale(0.100000,-0.100000)"
fill="#000000" stroke="none">
<path d="M5100 13429 c-30 -11 -66 -24 -80 -28 -35 -12 -187 -78 -325 -141
-38 -18 -86 -39 -105 -47 -19 -9 -107 -50 -195 -93 -88 -43 -168 -80 -178 -84
-10 -3 -42 4 -70 15 -101 41 -203 81 -242 96 -22 8 -51 20 -65 25 -14 6 -36
14 -50 18 -14 5 -50 18 -80 30 -46 17 -141 49 -387 130 -116 38 -275 70 -353
70 -102 0 -118 -14 -159 -145 -61 -193 -173 -437 -205 -443 -9 -2 -37 7 -63
19 -147 71 -314 7 -656 -249 -102 -77 -130 -110 -148 -177 -14 -51 10 -146 59
-229 56 -96 277 -308 434 -417 4 -3 16 -37 26 -75 42 -160 150 -284 247 -284
81 1 183 87 289 243 33 48 62 87 65 87 20 -1 49 -43 178 -260 172 -287 379
-705 478 -965 52 -137 121 -262 185 -335 133 -152 291 -281 460 -375 58 -32
98 -51 257 -126 53 -25 195 -74 298 -104 274 -78 518 -103 676 -70 99 21 112
28 424 218 11 7 50 31 87 55 37 23 69 42 72 42 3 0 24 13 48 29 24 15 70 43
103 61 33 18 67 38 75 45 8 6 22 15 30 19 8 4 24 12 35 19 45 28 266 148 340
185 152 78 273 122 335 122 74 0 252 -77 433 -189 59 -36 129 -78 154 -92 25
-15 48 -31 52 -36 3 -5 43 -36 89 -68 45 -33 97 -70 115 -83 42 -31 44 -66 3
-70 -83 -10 -152 -98 -144 -182 6 -61 35 -100 109 -151 32 -22 59 -42 59 -46
0 -8 -69 -134 -139 -251 -33 -57 -61 -105 -61 -107 0 -2 -34 -60 -75 -130 -41
-69 -75 -128 -75 -130 0 -3 -100 -178 -129 -225 -14 -22 -151 -259 -174 -300
-18 -33 -127 -220 -154 -265 -7 -11 -16 -27 -20 -35 -4 -8 -40 -71 -80 -139
-40 -67 -73 -124 -73 -126 0 -2 -27 -49 -60 -105 -33 -56 -60 -103 -60 -105 0
-2 -34 -61 -75 -130 -41 -70 -75 -128 -75 -130 0 -1 -36 -63 -79 -137 -44 -74
-84 -144 -90 -154 -5 -11 -37 -65 -71 -122 -33 -56 -60 -104 -60 -107 0 -2
-34 -61 -75 -130 -41 -70 -75 -128 -75 -130 0 -2 -34 -60 -75 -129 -41 -69
-75 -128 -75 -130 0 -4 -112 -198 -130 -226 -6 -8 -13 -22 -17 -30 -4 -8 -33
-59 -65 -113 -32 -54 -58 -101 -58 -104 0 -2 -13 -24 -30 -48 -16 -24 -30 -47
-30 -51 0 -4 -20 -39 -44 -78 -24 -39 -54 -91 -67 -115 -13 -24 -28 -51 -34
-60 -12 -19 -94 -161 -122 -211 -11 -19 -43 -74 -70 -121 -27 -48 -53 -93 -57
-100 -4 -8 -12 -23 -19 -34 -7 -11 -37 -63 -67 -115 -30 -52 -60 -104 -67
-115 -7 -11 -16 -27 -20 -35 -4 -8 -39 -69 -78 -135 -184 -312 -225 -435 -225
-670 0 -237 68 -438 211 -626 93 -123 213 -219 388 -310 202 -106 426 -142
651 -104 273 45 525 209 675 440 30 46 55 87 55 90 0 3 8 18 19 33 10 15 56
92 101 172 46 80 114 197 151 260 36 63 77 133 89 155 24 43 107 187 127 220
7 11 16 27 20 35 4 8 33 59 65 113 32 54 58 100 58 102 0 3 68 121 130 225 5
8 37 64 72 125 35 60 75 130 90 155 15 25 31 52 35 60 4 8 34 60 66 115 33 55
70 120 84 145 58 104 228 398 249 432 13 21 24 40 24 42 0 4 102 182 129 226
11 17 130 225 146 255 11 20 135 231 174 295 11 19 24 42 28 50 4 8 33 59 65
113 32 55 58 100 58 102 0 2 34 60 75 130 41 69 75 128 75 130 0 1 34 60 75
130 41 69 75 128 75 131 0 3 102 180 129 224 6 8 38 64 73 125 35 60 75 130
90 155 15 25 31 52 35 60 4 8 33 59 65 113 32 54 58 100 58 102 0 10 164 282
176 291 8 7 33 9 57 7 32 -4 55 1 84 16 101 51 130 163 68 255 -40 59 -34 111
31 251 76 168 318 409 562 561 68 42 75 47 179 112 96 61 222 149 264 186 20
17 62 51 94 76 257 200 570 536 742 797 57 87 103 181 103 212 0 19 -93 172
-138 227 -15 18 -47 61 -72 94 -75 101 -382 472 -470 569 -8 9 -28 32 -44 51
-50 60 -265 289 -431 458 -214 219 -532 506 -655 592 -19 14 -37 28 -40 31 -8
10 -277 189 -283 189 -4 0 -28 13 -54 28 -26 16 -84 43 -128 62 l-80 33 -130
-17 c-255 -32 -303 -36 -520 -46 -478 -21 -801 -16 -1089 15 -76 8 -212 15
-301 15 -270 0 -281 -7 -482 -348 -26 -44 -33 -45 -183 -8 -58 15 -136 33
-175 42 -38 9 -74 20 -80 24 -5 4 -39 20 -75 35 -65 27 -422 204 -515 255 -27
15 -90 49 -140 75 -49 26 -112 60 -140 75 -211 116 -394 201 -432 199 -10 0
-43 -9 -73 -20z m210 -134 c47 -23 110 -55 140 -72 301 -166 713 -377 932
-477 61 -27 110 -56 113 -65 8 -26 149 -168 250 -253 97 -80 292 -228 390
-294 224 -152 310 -208 398 -259 27 -15 58 -40 69 -56 21 -28 124 -114 165
-136 13 -7 34 -13 49 -13 37 0 82 -24 139 -75 l50 -44 -34 -1 c-34 0 -145 44
-169 67 -7 7 -19 13 -27 13 -7 0 -15 7 -19 15 -3 8 -15 15 -26 15 -11 0 -20 4
-20 9 0 5 -12 14 -27 20 -16 6 -37 16 -48 23 -11 7 -39 25 -63 41 -24 15 -46
27 -49 27 -3 0 -31 15 -62 34 -31 19 -78 46 -106 62 -27 15 -79 46 -115 69
-36 23 -91 52 -122 63 -32 12 -155 84 -275 160 -120 76 -236 149 -258 162 -22
13 -69 42 -105 64 -75 47 -65 41 -235 143 -164 99 -167 101 -185 110 -8 4 -60
34 -115 66 -112 66 -202 116 -288 160 -62 31 -68 48 -21 58 16 4 22 7 14 8 -8
1 -28 8 -45 17 -36 19 -117 47 -205 70 -36 10 -101 34 -145 54 -94 44 -230
101 -298 126 -26 9 -50 21 -53 26 -6 10 96 59 195 94 78 28 98 25 211 -31z
m-2255 20 c93 -16 157 -32 275 -70 158 -50 488 -165 545 -190 17 -7 49 -20 73
-29 95 -36 122 -50 122 -63 0 -21 -33 -15 -98 17 -34 17 -66 30 -72 30 -6 0
-32 6 -58 14 -96 28 -250 55 -502 85 -47 6 -164 16 -260 22 -96 6 -181 15
-188 22 -8 6 -11 19 -7 31 3 12 11 39 16 61 13 52 35 85 57 85 9 0 53 -7 97
-15z m1841 -191 c54 -20 115 -42 135 -50 63 -23 502 -236 525 -255 6 -5 31
-20 55 -32 116 -62 190 -102 249 -137 36 -21 83 -48 105 -60 39 -21 502 -300
550 -330 13 -8 45 -28 72 -44 26 -16 93 -59 148 -95 55 -36 108 -69 118 -73
20 -9 23 -28 3 -28 -8 0 -27 6 -43 14 -15 7 -46 22 -68 32 -35 16 -148 82
-233 136 -15 10 -36 22 -47 28 -11 6 -42 24 -70 40 -71 43 -271 140 -288 140
-8 0 -20 7 -27 15 -14 17 -36 20 -45 6 -3 -6 32 -28 77 -51 46 -23 99 -51 118
-62 19 -11 53 -29 75 -41 44 -23 157 -88 165 -94 3 -3 -3 -9 -13 -15 -16 -9
-13 -13 30 -34 26 -13 51 -24 55 -24 5 0 36 -13 70 -29 51 -23 181 -78 313
-131 11 -5 52 -19 90 -31 39 -13 108 -48 155 -79 47 -30 90 -57 95 -60 28 -14
65 -43 65 -51 0 -5 -11 -9 -25 -9 -14 0 -25 -5 -25 -11 0 -8 14 -10 45 -6 27
4 47 2 51 -4 4 -6 26 -20 50 -31 101 -44 27 -50 -156 -12 -69 15 -145 30 -170
34 -25 5 -81 18 -125 30 -44 12 -93 26 -110 30 -80 21 -245 96 -245 112 0 11
74 10 86 -1 17 -16 178 -53 234 -53 49 1 139 -22 188 -47 25 -13 115 -41 130
-41 26 0 10 16 -40 39 -168 74 -260 111 -277 111 -9 0 -25 7 -35 15 -11 8 -28
15 -38 15 -9 0 -32 6 -50 14 -18 8 -60 22 -93 31 -33 9 -74 21 -91 26 -17 5
-41 9 -55 8 -19 -1 -17 -3 13 -13 20 -6 43 -17 50 -24 6 -6 21 -12 32 -12 12
0 28 -4 36 -10 17 -10 9 -14 -45 -24 -16 -2 -41 -8 -55 -11 -39 -10 -192 103
-605 445 -248 207 -360 292 -428 327 -52 27 -53 27 -302 31 l-250 4 -170 83
c-224 109 -337 155 -450 180 -43 9 -58 24 -44 41 6 8 15 14 19 14 4 0 63 26
131 58 68 32 140 65 159 74 56 27 116 22 226 -18z m-1841 -89 c197 -10 523
-50 660 -80 202 -43 243 -67 173 -99 -75 -34 -179 -99 -295 -184 -30 -22 -51
-31 -64 -27 -10 4 -19 10 -19 15 0 11 -111 90 -160 114 -117 58 -343 120 -522
143 -45 6 -48 19 -18 80 23 48 29 51 95 47 28 -2 95 -6 150 -9z m6385 -20 c38
-20 38 -35 1 -35 -37 0 -49 -16 -19 -25 22 -6 63 -24 118 -50 14 -7 47 -18 75
-24 47 -12 102 -46 193 -120 23 -20 42 -39 42 -43 0 -19 -107 -7 -158 17 -30
14 -60 25 -67 25 -7 0 -18 6 -24 14 -7 8 -27 17 -44 21 -18 3 -54 12 -82 20
-83 24 -182 45 -211 45 -14 0 -51 7 -81 16 -37 11 -70 14 -101 9 -55 -8 -39
-25 24 -25 22 0 49 -7 60 -15 10 -8 39 -15 64 -15 25 0 52 -4 60 -10 27 -17
-16 -23 -77 -10 -32 6 -83 15 -113 20 -30 4 -75 13 -100 18 -25 6 -79 18 -120
26 -41 8 -106 22 -145 30 -38 8 -85 18 -102 21 -45 9 -42 31 5 39 114 18 485
-14 689 -60 78 -18 126 -18 121 -2 -3 7 -20 15 -39 19 -19 3 -40 8 -47 13 -6
4 -51 13 -99 20 -49 8 -101 20 -118 27 l-30 12 50 8 c45 8 182 24 228 28 10 0
31 -6 47 -14z m-2070 -17 c-1 -14 -124 -108 -141 -108 -5 0 -9 -4 -9 -8 0 -5
-20 -23 -44 -41 -25 -17 -68 -52 -97 -76 -29 -25 -54 -43 -56 -41 -16 16 79
146 107 146 10 0 22 5 25 10 3 6 14 10 23 10 9 0 37 18 62 40 36 32 41 40 27
46 -11 4 -31 -5 -56 -25 -34 -27 -71 -41 -71 -26 0 22 37 54 73 64 83 21 157
26 157 9z m385 -18 c44 -6 166 -13 270 -16 131 -5 201 -11 225 -21 148 -62
427 -131 875 -217 44 -8 105 -20 135 -26 64 -12 326 -57 420 -71 36 -6 101
-17 145 -24 44 -8 101 -17 126 -20 70 -9 104 -40 240 -219 41 -55 105 -190
123 -262 18 -70 21 -134 6 -134 -5 0 -10 4 -10 8 0 16 -136 145 -195 184 -91
61 -256 140 -427 204 -101 38 -125 47 -156 60 -18 8 -39 14 -47 14 -8 0 -29 6
-47 14 -18 8 -62 22 -98 31 -36 9 -75 21 -88 26 -76 30 -416 78 -552 79 -98 1
-189 29 -455 139 -202 85 -362 131 -452 131 -67 0 -115 -15 -288 -90 -149 -64
-225 -91 -237 -84 -9 6 27 32 92 68 51 28 95 66 76 66 -8 0 -18 -4 -21 -10 -3
-5 -15 -10 -26 -10 -17 0 -61 -20 -118 -55 -9 -5 -40 -27 -68 -47 -52 -39 -87
-50 -77 -24 3 8 56 53 117 99 101 76 117 85 165 89 31 3 60 12 73 24 19 17 19
19 3 31 -22 16 -8 34 46 61 42 20 66 20 225 2z m-3408 -109 c125 -31 219 -65
348 -124 145 -66 149 -81 23 -92 -46 -3 -119 -13 -163 -21 -206 -39 -244 -47
-295 -61 -30 -8 -100 -32 -155 -53 -55 -21 -126 -41 -158 -45 -88 -10 -204
-87 -195 -130 2 -13 11 -9 43 20 22 19 51 38 65 42 14 3 28 10 31 16 4 5 11 8
17 6 6 -2 4 -12 -6 -24 -18 -22 -108 -85 -121 -85 -19 0 -218 -219 -239 -263
-13 -26 -28 -47 -33 -47 -14 0 -89 79 -89 93 0 21 73 234 103 299 22 49 37 47
37 -4 0 -42 18 -43 26 -1 14 79 119 235 188 282 23 15 48 31 56 35 8 4 24 12
35 19 48 29 136 79 205 116 64 35 84 41 137 41 34 0 97 -9 140 -19z m-1487
-56 c239 -43 382 -88 488 -150 70 -42 122 -96 122 -126 0 -20 -36 -99 -46 -99
-3 0 -28 18 -57 39 -47 35 -112 69 -222 116 -43 18 -81 30 -221 68 -89 25
-196 82 -208 112 -6 18 22 55 42 55 9 0 55 -7 102 -15z m6574 -35 c-5 -5 -29
-6 -59 -1 l-50 9 60 1 c37 1 56 -2 49 -9z m-6931 -20 c22 -17 115 -147 126
-175 2 -5 9 -17 16 -25 7 -8 27 -42 45 -75 18 -33 39 -67 46 -76 8 -8 14 -18
14 -21 0 -4 40 -73 88 -155 48 -81 91 -155 95 -163 4 -8 13 -24 20 -35 7 -11
50 -86 96 -165 46 -80 92 -157 102 -172 11 -15 19 -29 19 -32 0 -3 33 -60 73
-128 40 -68 76 -130 80 -138 4 -8 13 -24 20 -35 64 -104 79 -129 128 -210 51
-85 215 -345 275 -437 44 -66 157 -217 204 -272 14 -16 79 -74 145 -129 66
-55 145 -124 175 -153 182 -171 304 -244 411 -244 35 0 154 32 264 71 17 6 46
14 65 19 19 4 71 19 115 32 44 14 107 33 140 42 33 9 107 29 165 46 192 54
314 85 449 115 41 9 77 18 80 19 10 6 353 74 406 80 28 4 68 9 90 12 32 4 36
3 23 -6 -10 -6 -18 -18 -18 -27 0 -13 9 -15 65 -9 36 4 72 9 81 13 14 5 15 3
6 -14 -6 -10 -45 -36 -87 -57 -74 -36 -150 -78 -285 -156 -36 -21 -83 -48
-105 -60 -22 -12 -82 -48 -133 -79 -51 -31 -115 -69 -142 -86 -28 -16 -103
-62 -167 -102 -138 -84 -159 -93 -221 -93 -66 -1 -257 -35 -257 -46 0 -5 29
-13 65 -18 l65 -10 -60 -8 c-123 -17 -505 52 -695 126 -286 112 -465 211 -645
357 -84 68 -125 111 -195 204 -58 76 -89 138 -174 348 -31 76 -60 146 -65 155
-4 9 -15 33 -24 52 -81 179 -306 610 -333 641 -8 8 -14 18 -14 22 0 6 -63 110
-135 225 -22 35 -73 109 -113 165 -269 374 -481 547 -672 547 -38 0 -71 4 -74
9 -17 27 172 302 222 323 37 15 109 8 135 -12z m5384 -9 c114 -28 191 -56 430
-155 47 -19 50 -22 36 -38 -13 -15 -12 -17 9 -24 12 -4 27 -12 33 -19 5 -6 30
-20 55 -30 25 -10 53 -25 63 -34 12 -10 21 -11 28 -4 7 7 -1 20 -26 41 -44 36
-33 47 25 27 23 -8 111 -19 195 -25 268 -18 410 -43 620 -110 58 -19 79 -32
123 -77 173 -181 338 -435 392 -603 29 -90 28 -253 -1 -310 -12 -22 -25 -37
-30 -34 -5 3 -9 42 -9 87 0 171 -74 297 -255 437 -41 32 -301 170 -320 170
-13 0 -492 233 -580 282 -22 13 -72 38 -110 56 -39 18 -77 37 -85 41 -86 48
-232 99 -302 106 -172 17 -354 57 -343 75 4 6 14 10 23 10 9 0 30 7 46 15 15
8 53 15 83 15 48 0 54 2 43 15 -7 8 -25 15 -40 15 -15 0 -41 7 -56 15 -22 11
-64 15 -161 15 -74 0 -133 4 -133 9 0 12 106 49 142 50 15 1 62 -8 105 -18z
m-113 -80 c22 -8 15 -15 -26 -25 -31 -7 -82 9 -73 24 7 12 71 12 99 1z m-884
-71 c80 -26 163 -55 185 -65 118 -49 151 -65 272 -126 164 -84 289 -165 372
-240 84 -77 219 -143 526 -256 22 -8 55 -21 73 -29 18 -8 39 -14 47 -14 8 0
29 -6 47 -14 18 -8 71 -29 118 -46 130 -48 300 -121 350 -150 25 -14 52 -29
60 -33 117 -57 311 -230 397 -354 33 -49 35 -54 21 -75 -40 -60 -286 -141
-543 -178 l-81 -12 -234 234 c-267 265 -499 459 -683 571 -38 23 -79 49 -92
57 -13 8 -68 42 -122 74 -84 51 -262 167 -438 286 -180 123 -505 391 -505 418
0 20 58 8 230 -48z m-4770 29 c0 -6 -14 -23 -32 -37 -53 -45 -118 -114 -118
-127 0 -7 -7 -18 -15 -25 -8 -7 -15 -24 -15 -38 0 -14 -5 -40 -12 -58 -6 -17
-8 -39 -4 -49 11 -29 33 0 41 52 8 56 35 109 66 131 21 15 22 14 14 -4 -4 -10
-11 -46 -15 -79 -4 -33 -13 -80 -20 -104 -6 -25 -10 -74 -8 -110 2 -48 0 -66
-10 -66 -18 0 -132 156 -132 181 0 29 16 76 55 160 28 59 44 79 92 115 91 68
113 80 113 58z m5397 -13 c32 -13 83 -34 113 -46 161 -66 329 -108 510 -128
97 -10 169 -36 350 -127 529 -265 713 -355 727 -355 3 0 64 -29 136 -65 261
-127 374 -261 385 -457 4 -80 -7 -134 -49 -229 -18 -39 -41 -60 -156 -145
-311 -228 -371 -274 -440 -338 -51 -47 -77 -80 -89 -113 -76 -198 -203 -308
-514 -444 -109 -48 -231 -144 -316 -249 -50 -63 -67 -89 -124 -192 -24 -44
-39 -47 -76 -15 -27 24 -27 24 -16 93 14 87 67 247 97 294 25 38 59 71 120
112 101 70 405 326 478 403 26 28 117 157 126 180 2 6 15 24 28 41 12 17 23
35 23 40 0 5 -7 0 -15 -10 -19 -25 -40 -8 -30 22 8 28 45 39 57 18 8 -15 13
-14 39 9 17 14 38 25 47 25 58 0 349 87 419 126 108 60 150 143 106 212 -96
152 -292 336 -455 428 -93 52 -291 145 -348 164 -14 5 -50 18 -80 30 -30 11
-86 32 -125 45 -418 144 -565 210 -663 299 -95 85 -207 157 -410 261 -53 28
-97 56 -97 63 0 12 136 67 172 71 6 0 38 -10 70 -23z m-4491 -250 c235 -236
317 -324 530 -571 120 -140 440 -522 544 -650 30 -38 71 -87 90 -110 19 -23
73 -89 120 -145 209 -253 300 -341 400 -388 148 -70 378 -86 735 -52 55 5 188
16 295 24 107 9 260 21 340 28 318 28 591 8 805 -60 62 -20 83 -37 35 -28 -19
3 -66 10 -105 16 -38 5 -86 14 -105 20 -40 12 -590 13 -660 1 l-45 -7 50 -8
c93 -14 97 -21 20 -43 -39 -11 -101 -27 -140 -36 -187 -42 -490 -119 -581
-147 -17 -6 -39 -10 -50 -9 -16 0 -15 2 6 12 14 6 29 17 33 24 4 7 14 13 22
13 8 0 49 18 91 40 75 39 77 52 5 29 -72 -24 -199 -80 -335 -148 -77 -39 -145
-71 -150 -71 -6 0 -67 -18 -136 -40 -69 -22 -143 -40 -165 -40 -62 0 -174 59
-246 129 -44 43 -205 188 -228 206 -149 113 -292 278 -396 453 -5 9 -35 55
-66 102 -31 47 -87 136 -125 198 -38 62 -77 125 -86 140 -10 15 -22 36 -28 47
-11 21 -18 34 -62 103 -16 24 -28 45 -28 47 0 3 -164 283 -190 325 -6 8 -21
35 -35 60 -14 25 -30 52 -35 60 -12 18 -100 170 -130 225 -12 22 -82 142 -156
266 -74 124 -134 231 -134 237 0 32 82 -38 296 -252z m2369 217 l120 -8 -90
-6 c-49 -3 -101 -10 -115 -14 -24 -8 -23 -9 15 -16 22 -4 70 -8 106 -8 37 -1
86 -8 109 -16 23 -8 55 -15 70 -15 36 0 92 -41 329 -241 36 -31 77 -64 90 -75
13 -10 54 -44 90 -75 105 -88 379 -291 461 -340 130 -79 281 -128 577 -189 81
-17 175 -35 208 -40 33 -5 85 -13 115 -18 82 -15 249 -39 390 -57 317 -39 284
-30 364 -98 111 -95 366 -356 366 -375 0 -26 -77 -85 -103 -79 -12 3 -87 28
-167 57 -80 28 -154 54 -165 57 -11 3 -63 18 -115 33 -137 39 -203 57 -308 80
-52 12 -101 25 -110 29 -74 38 -282 91 -358 91 -18 0 68 -49 97 -55 64 -15 1
-24 -170 -24 -109 -1 -182 4 -220 13 -31 8 -73 17 -93 20 -50 9 -48 22 5 32
l42 7 -40 9 c-160 35 -584 183 -720 251 -86 43 -310 170 -460 260 -11 7 -90
58 -175 114 -216 142 -268 166 -545 257 -254 84 -254 83 -342 96 -147 22 -493
-10 -623 -58 -123 -44 -245 -146 -325 -269 -22 -34 -46 -62 -53 -63 -20 0 -62
47 -62 70 0 38 65 142 130 210 77 79 128 119 333 256 115 76 411 147 772 185
117 12 410 27 435 23 8 -2 69 -6 135 -11z m-2290 -76 c45 -17 57 -36 23 -39
-44 -3 -62 3 -85 24 -45 42 -25 47 62 15z m7241 -122 c23 -22 99 -96 168 -164
125 -124 126 -125 126 -171 0 -26 -6 -66 -14 -91 -8 -24 -24 -78 -37 -119 -23
-76 -55 -162 -90 -236 -10 -23 -19 -44 -19 -47 0 -15 -149 -321 -240 -492 -20
-38 -63 -119 -95 -180 -32 -60 -69 -127 -82 -147 -12 -21 -23 -40 -23 -43 0
-2 -20 -39 -45 -81 -25 -41 -45 -77 -45 -80 0 -2 -54 -94 -120 -205 -66 -111
-120 -205 -120 -209 0 -8 -71 -68 -210 -180 -40 -32 -198 -168 -210 -180 -3
-3 -21 -18 -40 -34 -53 -43 -261 -237 -383 -358 -69 -67 -115 -104 -124 -101
-20 8 -12 36 16 49 43 22 111 84 111 102 0 10 5 23 12 30 6 6 9 14 6 17 -3 3
-25 -14 -50 -37 -99 -94 -132 -118 -141 -109 -7 7 14 35 60 83 87 89 161 172
188 208 11 15 28 35 38 45 10 10 25 29 34 42 11 16 19 21 26 14 7 -7 6 -15 -1
-24 -25 -30 -82 -149 -76 -159 7 -11 36 20 55 57 11 23 23 43 62 103 15 23 37
59 48 80 12 20 36 62 54 92 78 129 97 171 89 199 -4 14 -7 28 -6 31 50 165
112 290 144 290 30 0 224 244 235 295 7 33 65 93 307 320 147 138 213 214 255
290 12 22 35 63 52 90 73 121 106 207 123 321 8 61 23 130 31 154 45 127 -1
335 -117 528 -61 101 -51 102 48 7z m-7011 -45 c42 -16 49 -35 29 -85 -9 -25
-22 -49 -27 -52 -12 -7 -136 125 -137 145 0 10 13 12 58 6 31 -4 66 -10 77
-14z m-1012 -14 c41 -18 46 -35 23 -88 -40 -95 -70 -192 -86 -278 -19 -105
-20 -110 -29 -110 -10 0 -63 101 -87 165 -44 116 -55 224 -30 274 31 59 118
75 209 37z m7467 -106 c205 -88 260 -125 260 -173 0 -14 5 -29 10 -32 6 -3 10
-18 10 -33 0 -15 7 -48 15 -74 8 -27 22 -69 30 -95 8 -27 15 -58 15 -70 0 -28
10 -53 21 -53 15 0 10 132 -6 160 -18 32 -20 93 -2 88 6 -3 14 -13 16 -24 1
-10 9 -26 16 -34 7 -8 21 -52 31 -98 19 -92 23 -66 -37 -251 -11 -36 -33 -93
-49 -128 -16 -35 -24 -60 -18 -57 22 14 -1 -57 -31 -95 -16 -20 -76 -81 -132
-135 -523 -499 -641 -643 -719 -876 -54 -161 -189 -384 -328 -545 -187 -215
-294 -325 -315 -325 -10 0 -26 9 -37 20 -11 11 -26 20 -34 20 -8 0 -60 27
-116 60 -56 33 -103 60 -106 60 -2 0 -26 14 -54 31 -49 30 -61 54 -39 76 6 6
16 20 23 31 6 12 33 54 61 94 84 123 99 158 70 158 -8 0 -15 -7 -15 -15 0 -8
-5 -15 -10 -15 -6 0 -15 -11 -20 -25 -5 -14 -14 -25 -19 -25 -5 0 -13 -9 -16
-21 -5 -14 -10 -18 -17 -11 -16 16 16 74 68 120 93 83 104 92 142 115 20 13
62 33 92 46 176 73 292 147 387 245 40 41 75 70 79 65 3 -6 9 -9 13 -7 20 8
102 121 127 174 38 82 114 182 171 226 42 33 213 157 313 228 19 14 46 35 59
47 38 34 47 12 17 -41 -14 -25 -21 -46 -15 -46 18 0 64 58 99 127 19 36 53 89
76 115 23 27 57 77 75 111 34 62 34 63 34 197 -1 105 -5 147 -19 190 -46 136
-143 308 -255 454 -33 44 -58 83 -55 87 6 10 40 -1 134 -41z m-7272 -33 c47
-48 51 -66 22 -92 -29 -26 -106 -145 -131 -202 -12 -26 -28 -63 -37 -80 -56
-119 -34 110 28 297 47 139 53 143 118 77z m2248 -76 c99 -33 159 -64 249
-133 83 -64 224 -212 330 -348 49 -63 92 -117 95 -120 3 -3 28 -34 55 -70 157
-209 260 -307 382 -366 50 -24 96 -44 103 -44 12 0 77 -45 95 -65 6 -7 20 -17
33 -24 12 -6 22 -17 22 -22 0 -14 -51 -7 -105 14 -22 9 -65 26 -95 37 -30 12
-69 25 -85 29 -17 4 -40 13 -52 19 -12 7 -32 12 -45 12 -13 0 -32 7 -42 15
-22 16 -76 20 -76 6 0 -11 25 -21 50 -21 9 0 23 -7 30 -15 7 -8 21 -15 31 -15
10 0 33 -6 51 -14 43 -18 183 -74 231 -92 72 -27 122 -47 152 -60 17 -7 71
-29 120 -49 50 -21 94 -41 99 -46 6 -5 16 -9 23 -9 13 0 122 -48 175 -76 30
-16 58 -18 58 -5 0 5 -12 14 -27 20 -16 6 -48 22 -72 36 -24 14 -50 25 -56 25
-7 0 -18 7 -25 15 -7 8 -21 15 -31 15 -10 0 -24 8 -31 19 -7 10 -20 21 -28 24
-19 6 34 -3 80 -13 49 -11 96 -28 203 -74 21 -9 44 -16 51 -16 8 0 19 -7 26
-15 15 -18 53 -20 48 -2 -3 6 -13 14 -24 16 -10 2 -23 9 -27 17 -4 8 -17 14
-27 14 -10 0 -23 6 -27 14 -4 8 -19 16 -32 18 -14 1 -26 9 -29 16 -5 17 43 15
58 -3 7 -8 19 -15 28 -15 8 0 44 -13 79 -30 34 -16 67 -30 72 -30 4 0 30 -11
56 -25 26 -14 50 -23 54 -19 3 4 0 9 -6 11 -18 6 -16 23 2 23 8 0 15 -4 15
-10 0 -5 5 -10 11 -10 11 0 107 -62 259 -169 47 -33 114 -80 150 -104 95 -66
185 -137 172 -137 -6 0 -46 19 -89 41 -160 85 -228 117 -361 170 -37 15 -131
44 -202 64 -36 10 -90 27 -120 38 -30 11 -84 21 -120 23 -489 19 -576 29 -616
68 -8 9 -23 16 -32 16 -15 0 -15 2 -2 10 8 5 25 10 38 10 43 0 22 18 -30 25
-64 9 -197 42 -353 89 -129 39 -282 129 -336 198 -59 75 -82 99 -159 162 -207
171 -533 394 -970 666 -63 40 -149 93 -190 119 -41 26 -76 55 -78 64 -3 13 13
25 61 47 127 58 302 82 542 75 101 -3 135 -9 211 -34z m5399 -113 c64 -65 85
-97 85 -130 0 -37 -18 -45 -26 -11 -4 15 -16 42 -27 60 -16 27 -25 33 -53 33
-31 0 -35 4 -41 31 -3 17 -12 33 -19 36 -8 3 -14 14 -14 25 0 31 38 13 95 -44z
m-7503 35 c0 -10 1 -22 1 -28 0 -5 -25 -45 -57 -89 -119 -165 -125 -239 -22
-265 25 -6 48 -16 52 -22 8 -13 -50 -75 -90 -96 -54 -28 -116 10 -116 71 0 38
23 141 43 196 55 150 182 306 189 233z m8135 -163 c-6 -49 -50 -183 -91 -275
-238 -527 -355 -748 -633 -1193 -25 -41 -56 -78 -69 -84 -13 -6 -24 -14 -24
-18 0 -12 -49 -30 -55 -20 -3 5 17 46 44 92 27 46 57 99 68 118 11 19 40 70
64 114 198 353 394 739 492 971 50 117 127 333 127 355 0 5 5 21 11 37 l10 28
31 -34 c29 -32 30 -38 25 -91z m-5525 68 c24 -12 89 -52 146 -90 56 -37 104
-68 107 -68 2 0 33 -20 69 -45 37 -25 68 -45 71 -45 2 0 24 -13 48 -30 25 -16
48 -30 53 -30 4 0 15 -6 23 -14 9 -7 41 -27 71 -43 30 -17 87 -47 125 -68 39
-21 87 -49 107 -62 21 -13 40 -23 42 -23 2 0 69 -31 148 -69 217 -104 388
-174 528 -214 175 -50 186 -51 423 -49 192 2 247 -1 349 -18 113 -20 283 -75
390 -127 40 -20 49 -33 20 -33 -10 0 -23 -5 -30 -12 -16 -16 -28 -2 -12 17 14
17 8 21 -55 29 -86 10 -164 28 -245 57 -85 29 -140 37 -140 19 0 -5 12 -12 28
-16 39 -8 112 -37 224 -88 31 -14 60 -26 64 -26 7 0 90 -37 114 -51 8 -5 24
-13 35 -18 11 -5 59 -27 108 -50 48 -22 94 -41 102 -41 24 0 17 19 -10 26 -14
3 -25 10 -25 14 0 9 -80 50 -98 50 -7 0 -15 6 -18 14 -3 8 -18 16 -35 20 -16
3 -29 10 -29 16 0 16 56 12 70 -5 7 -8 23 -15 35 -15 12 0 28 -7 35 -15 7 -8
20 -15 29 -15 9 0 25 -7 35 -15 11 -8 27 -15 37 -15 9 0 22 -7 29 -15 7 -8 20
-15 29 -15 19 -1 61 -34 61 -48 0 -6 -9 -14 -20 -17 -11 -4 -27 -20 -36 -36
-8 -16 -26 -35 -39 -41 -14 -6 -27 -19 -30 -29 -6 -18 -55 -59 -72 -59 -5 0
-16 15 -26 33 -25 44 -81 104 -107 112 -16 5 -19 10 -11 18 7 7 20 6 43 -5 18
-9 47 -22 63 -29 17 -7 33 -15 38 -17 4 -2 7 2 7 8 0 6 -8 14 -17 17 -10 4
-20 10 -23 13 -6 9 -20 16 -222 116 -179 90 -262 124 -382 160 -86 26 -116 30
-116 14 0 -19 -417 -7 -675 20 -267 28 -556 84 -697 136 -24 8 -52 18 -63 21
-51 16 -138 78 -201 145 -58 61 -212 251 -289 356 -25 34 -98 125 -106 132
-16 14 -149 170 -149 174 0 12 31 5 72 -16z m-1353 -25 c25 -14 83 -50 128
-80 45 -29 84 -53 87 -53 3 0 35 -20 72 -45 36 -25 67 -45 69 -45 3 0 64 -39
137 -87 73 -48 141 -92 151 -98 46 -26 325 -219 429 -297 109 -81 162 -130
323 -296 33 -34 64 -62 69 -62 5 0 17 -6 25 -14 26 -23 160 -91 256 -131 50
-21 104 -43 120 -50 17 -7 54 -21 83 -31 28 -10 51 -23 49 -29 -2 -6 -63 -11
-152 -13 -217 -4 -381 33 -635 142 -148 63 -183 85 -285 175 -213 191 -470
401 -490 401 -2 0 -20 11 -40 25 -20 13 -88 49 -151 80 -165 81 -274 192 -342
346 -36 83 -37 106 -8 150 15 21 34 39 43 39 9 0 37 -12 62 -27z m-1144 -27
c25 -33 25 -36 11 -64 -28 -53 -74 -95 -99 -88 -12 3 -30 6 -39 6 -23 0 -23
32 -1 68 28 45 84 112 93 112 5 0 21 -15 35 -34z m8163 -104 c15 -16 54 -59
87 -97 33 -38 65 -73 70 -79 61 -64 145 -173 145 -190 -1 -36 -154 -240 -321
-425 -184 -205 -461 -443 -532 -458 -16 -3 -31 -12 -34 -19 -4 -11 -101 -64
-117 -64 -13 0 -2 23 78 156 114 191 143 243 239 439 124 251 267 558 267 573
0 4 14 40 30 81 17 40 30 82 30 92 0 28 27 23 58 -9z m-655 -97 c-1 -31 -9
-67 -17 -79 -8 -12 -16 -33 -18 -46 -1 -13 -9 -25 -15 -28 -18 -5 -16 46 2 78
8 14 15 41 15 60 0 49 11 82 24 77 7 -3 10 -26 9 -62z m-2597 -40 c10 -8 29
-15 42 -15 12 0 25 -7 28 -15 4 -8 17 -15 30 -15 31 0 31 -18 -1 -26 -23 -6
-80 20 -113 53 -7 7 -18 13 -23 13 -5 0 -9 5 -9 10 0 15 23 12 46 -5z m3685
-367 c96 -112 132 -167 125 -191 -11 -47 -218 -241 -386 -362 -22 -16 -58 -42
-78 -58 -20 -15 -62 -44 -92 -64 -30 -21 -56 -41 -58 -45 -2 -5 -8 -8 -14 -8
-6 0 -27 -13 -48 -30 -21 -16 -41 -30 -45 -30 -4 0 -24 -13 -45 -30 -21 -16
-41 -30 -45 -30 -4 0 -27 -13 -52 -30 -24 -16 -46 -30 -48 -30 -4 0 -240 -149
-278 -175 -34 -23 -351 -319 -456 -425 -52 -52 -111 -117 -132 -145 -22 -27
-57 -72 -79 -100 -36 -45 -70 -100 -70 -113 0 -7 90 88 147 154 23 26 45 45
49 42 9 -10 2 -23 -87 -158 -31 -47 -71 -111 -88 -144 -18 -32 -45 -79 -59
-105 -15 -26 -35 -63 -45 -82 -17 -34 -140 -181 -155 -187 -11 -4 -456 255
-467 272 -12 19 34 67 270 286 459 425 815 698 1115 853 269 139 404 239 630
466 150 151 168 166 200 166 40 0 53 28 23 50 -17 13 -16 15 13 47 26 28 116
146 179 236 9 12 19 22 24 22 4 0 27 -24 52 -52z m-7208 21 c162 -82 304 -190
597 -457 99 -89 128 -110 238 -163 68 -34 159 -74 201 -88 114 -40 104 -55
-39 -59 -226 -7 -397 31 -495 111 -41 32 -117 113 -190 202 -22 27 -58 70 -80
96 -22 26 -76 91 -120 144 -44 54 -99 120 -123 149 -77 91 -74 108 11 65z
m2038 -333 c41 -14 108 -38 149 -55 41 -17 80 -31 86 -31 6 0 17 -7 24 -15 7
-8 22 -15 34 -15 12 0 30 -6 41 -14 11 -7 32 -16 48 -20 15 -3 27 -11 27 -16
0 -15 -44 -12 -66 5 -10 8 -32 15 -49 15 -16 0 -41 7 -55 15 -14 8 -36 15 -50
15 -27 1 -111 28 -147 48 -12 7 -28 12 -36 12 -8 0 -20 7 -27 15 -7 8 -19 15
-28 15 -14 0 -41 27 -42 43 0 11 12 9 91 -17z m5404 6 c29 -20 115 -158 115
-184 0 -16 -20 -62 -47 -106 -137 -226 -459 -582 -713 -789 -95 -78 -191 -153
-196 -153 -3 0 -34 -21 -69 -47 -35 -27 -99 -70 -142 -97 -260 -164 -338 -220
-473 -344 -170 -155 -293 -335 -331 -482 -7 -29 -19 -54 -26 -57 -21 -8 -286
145 -291 168 -5 28 259 302 513 531 90 81 270 213 354 259 20 11 50 28 67 38
17 10 84 42 150 70 156 67 289 158 431 295 241 231 533 644 623 881 10 26 18
30 35 17z m-4935 -101 c89 -44 160 -86 168 -98 4 -6 17 -13 30 -17 12 -4 22
-11 22 -16 0 -4 9 -10 20 -13 11 -3 20 -10 20 -16 0 -17 -37 -13 -44 4 -3 8
-15 15 -26 15 -11 0 -23 7 -26 15 -4 8 -15 15 -27 15 -11 0 -28 6 -36 13 -9 7
-36 21 -61 31 -47 19 -87 36 -142 60 -18 8 -41 17 -50 20 -10 3 -18 11 -18 17
0 22 102 4 170 -30z m2075 29 c4 -6 0 -21 -8 -33 -14 -21 -30 -76 -32 -107 -2
-34 -27 -69 -98 -137 -41 -40 -77 -73 -81 -73 -3 0 -6 7 -6 15 0 8 5 15 10 15
6 0 10 4 10 9 0 5 20 44 45 85 43 73 54 106 37 106 -9 0 -52 -55 -52 -65 0 -4
-12 -22 -26 -41 -28 -37 -61 -92 -95 -162 -12 -24 -37 -57 -57 -75 -19 -18
-43 -40 -53 -49 -11 -10 -23 -18 -28 -18 -5 0 -11 -6 -14 -12 -3 -10 -9 -10
-26 0 -18 10 -21 10 -21 -4 0 -22 -56 -89 -99 -117 -44 -29 -113 -94 -129
-122 -10 -18 -11 -18 -12 -2 -1 47 27 104 69 142 119 109 149 144 144 165 -7
25 15 70 34 70 18 0 17 -36 -2 -44 -21 -8 -19 -26 7 -53 l21 -23 46 62 c86
115 141 193 151 216 5 12 14 22 20 22 5 0 10 9 10 19 0 11 6 22 13 24 6 3 -3
3 -21 0 -32 -6 -33 -5 -22 14 7 11 26 28 41 39 16 10 32 27 35 37 10 32 116
107 151 107 17 0 35 -5 38 -10z m-445 -21 c30 -11 64 -23 75 -26 55 -16 58
-43 9 -73 -27 -18 -38 -20 -47 -11 -9 10 -7 16 8 28 19 14 17 14 -25 9 -35 -5
-41 -4 -27 4 25 16 21 27 -13 39 -16 5 -30 14 -30 19 0 5 -15 14 -32 20 l-33
10 30 1 c17 1 55 -8 85 -20z m-1065 -19 c259 -12 262 -12 365 -47 119 -40 167
-69 250 -151 58 -58 86 -95 110 -147 55 -117 55 -119 14 -215 -20 -47 -40 -95
-45 -108 -15 -38 -35 -36 -96 11 -61 46 -277 202 -378 272 -33 23 -100 70
-150 105 -49 35 -133 92 -185 127 -183 121 -229 156 -224 165 4 6 29 7 58 4
28 -3 155 -10 281 -16z m4130 -91 c-19 -42 -32 -63 -67 -110 -16 -20 -28 -41
-28 -45 -1 -17 -49 -68 -57 -61 -4 4 1 23 12 42 10 20 15 38 10 43 -4 4 -10 1
-13 -7 -2 -7 -13 -21 -23 -29 -11 -9 -19 -22 -19 -30 0 -7 -7 -15 -15 -18 -8
-4 -15 -12 -15 -20 0 -8 -4 -14 -8 -14 -5 0 -23 -21 -41 -46 -18 -25 -50 -65
-70 -88 -20 -24 -61 -73 -91 -110 -30 -38 -64 -78 -75 -91 -11 -13 -54 -62
-95 -110 -100 -115 -201 -187 -200 -142 1 6 31 44 68 83 37 40 99 109 137 155
91 108 159 184 259 290 81 87 146 170 146 187 0 9 43 42 55 42 3 0 5 -9 5 -20
0 -11 5 -20 10 -20 6 0 10 7 10 16 0 27 42 89 79 116 20 14 37 25 39 24 1 -2
-5 -18 -13 -37z m-2255 -203 c0 -8 -4 -18 -10 -21 -5 -3 -10 3 -10 14 0 12 5
21 10 21 6 0 10 -6 10 -14z m1980 4 c0 -9 -66 -80 -75 -80 -3 0 -33 -30 -68
-66 -34 -37 -93 -87 -130 -111 -111 -74 -323 -284 -466 -462 -48 -59 -120
-116 -132 -104 -6 6 -3 18 11 35 20 27 26 48 13 48 -5 0 -69 -62 -143 -138
-156 -159 -311 -295 -323 -283 -7 7 27 62 112 182 14 20 42 58 60 85 68 96
251 301 328 366 71 61 152 121 214 158 220 131 465 291 539 351 36 29 60 37
60 19z m-2994 -37 c18 -25 17 -33 -5 -33 -17 0 -31 18 -31 41 0 15 22 10 36
-8z m2646 -341 c-7 -2 -12 -10 -12 -18 0 -8 -4 -14 -8 -14 -5 0 -28 -27 -52
-60 -24 -33 -47 -60 -52 -60 -4 0 -8 -7 -8 -15 0 -8 -5 -15 -10 -15 -6 0 -15
-11 -20 -25 -26 -69 -173 -176 -202 -147 -9 9 -7 16 9 27 12 8 97 91 190 184
92 94 170 165 172 158 2 -6 -1 -13 -7 -15z m-2882 -530 c40 -20 95 -52 230
-132 52 -31 102 -60 110 -64 8 -4 24 -12 35 -19 33 -19 176 -103 220 -127 22
-12 92 -53 155 -90 192 -111 373 -216 420 -243 25 -14 103 -59 174 -101 70
-42 129 -76 131 -76 2 0 49 -27 105 -60 56 -33 103 -60 105 -60 14 0 214 -126
227 -143 25 -31 22 -64 -7 -92 -34 -35 -59 -31 -149 21 -43 25 -99 58 -125 72
-44 26 -253 146 -289 167 -9 6 -60 35 -112 65 -52 30 -104 60 -115 67 -11 7
-27 15 -35 19 -8 4 -64 37 -124 73 -59 36 -120 72 -135 80 -14 7 -78 43 -141
80 -63 36 -121 70 -130 74 -8 4 -24 13 -35 20 -11 7 -69 41 -130 75 -60 35
-117 67 -125 73 -53 32 -223 129 -227 129 -10 0 -106 62 -130 84 -33 28 -31
78 3 105 33 26 50 26 94 3z m197 -403 c21 -12 74 -42 118 -68 44 -26 88 -50
98 -54 29 -11 19 -30 -54 -102 -101 -100 -282 -296 -414 -450 -33 -38 -64 -75
-70 -81 -19 -21 -83 -99 -168 -207 -72 -90 -197 -275 -197 -291 0 -3 -12 -24
-27 -48 -16 -24 -34 -52 -40 -63 -7 -11 -32 -51 -55 -88 -24 -37 -48 -76 -53
-86 -6 -11 -16 -25 -22 -32 -17 -21 -160 -275 -167 -296 -7 -21 -46 -49 -46
-33 0 6 10 45 21 88 12 42 25 91 29 107 12 44 65 184 88 230 11 22 32 67 48
100 55 118 113 199 231 320 58 60 172 213 209 280 6 11 44 79 84 150 40 72
118 222 172 335 54 113 105 218 113 233 8 16 15 34 15 41 0 16 21 36 37 36 7
0 29 -10 50 -21z m-207 -48 c0 -11 -7 -26 -15 -35 -8 -8 -15 -20 -15 -27 0
-16 -207 -429 -226 -450 -8 -8 -14 -21 -14 -27 0 -6 -6 -17 -13 -24 -7 -7 -18
-22 -25 -33 -11 -20 -11 -20 -12 0 0 22 19 78 38 112 7 12 12 27 12 33 0 12
49 113 90 185 26 46 109 190 127 220 7 11 17 30 22 43 13 27 31 29 31 3z m613
-186 c20 -14 37 -29 37 -33 0 -4 -10 -34 -21 -67 -11 -33 -31 -108 -44 -167
-14 -59 -29 -118 -34 -130 -5 -13 -17 -52 -26 -88 -36 -136 -134 -340 -303
-630 -84 -143 -249 -416 -297 -490 -23 -36 -44 -73 -48 -82 -3 -10 -14 -18
-23 -18 -15 0 -16 10 -10 88 7 92 31 253 46 312 5 19 48 87 95 150 137 184
251 440 329 740 10 36 21 79 26 95 5 17 12 48 15 70 21 123 47 167 145 248 42
34 65 34 113 2z m126 -161 c-6 -27 -14 -76 -19 -109 -4 -33 -18 -114 -30 -180
-29 -162 -49 -299 -60 -425 -8 -97 -30 -182 -61 -242 -22 -42 -136 -212 -180
-269 -24 -31 -98 -119 -164 -197 -141 -167 -150 -169 -143 -32 l5 85 120 200
c161 268 209 354 296 530 74 150 94 204 142 385 9 36 24 85 31 109 8 25 14 55
14 67 0 13 6 38 14 56 8 18 18 46 21 62 4 18 10 25 16 19 6 -6 5 -27 -2 -59z
m200 -29 c22 -14 43 -25 47 -25 3 0 19 -11 36 -25 16 -14 35 -25 41 -25 7 0
37 -16 66 -35 30 -20 73 -45 95 -56 107 -53 106 -52 82 -97 -8 -15 -31 -65
-51 -112 -21 -47 -49 -108 -62 -136 -12 -28 -23 -54 -23 -57 0 -3 -11 -23 -25
-43 -24 -35 -36 -25 -16 14 14 29 33 86 39 117 2 17 11 39 18 50 15 21 19 75
6 75 -8 0 -26 -41 -69 -155 -8 -22 -21 -53 -28 -70 -7 -16 -34 -83 -60 -149
-51 -127 -82 -183 -176 -316 -33 -47 -72 -103 -87 -125 -14 -22 -41 -60 -60
-83 -37 -47 -52 -44 -52 10 0 28 41 115 63 133 22 18 54 70 114 184 23 44 46
88 52 98 5 10 12 25 15 33 3 8 10 22 15 30 8 13 39 79 86 185 7 17 27 60 44
98 17 37 31 71 31 76 0 5 7 22 15 37 17 34 20 64 5 64 -6 0 -13 -8 -16 -17 -6
-21 -62 -141 -75 -163 -5 -8 -14 -25 -19 -38 -17 -40 -60 -130 -152 -318 -48
-100 -88 -184 -88 -188 0 -4 -7 -14 -15 -22 -8 -9 -15 -24 -15 -35 0 -10 -4
-19 -9 -19 -5 0 -13 -9 -16 -21 -6 -16 -9 -18 -22 -8 -28 24 14 169 61 208 9
8 16 22 16 32 0 11 3 19 8 19 6 0 28 43 67 135 7 17 20 46 28 65 14 33 21 50
59 155 62 167 98 319 69 290 -11 -11 -38 -83 -51 -133 -4 -18 -12 -38 -18 -45
-5 -7 -12 -23 -15 -37 -3 -14 -15 -50 -27 -80 -12 -30 -25 -69 -29 -85 -4 -17
-13 -39 -18 -50 -6 -11 -19 -40 -28 -65 -9 -25 -23 -60 -31 -78 -8 -18 -14
-39 -14 -48 0 -8 -7 -17 -15 -20 -8 -4 -15 -14 -15 -24 0 -11 -5 -22 -10 -25
-17 -10 -23 24 -10 53 6 15 16 67 20 116 8 83 69 295 106 368 16 30 19 78 5
78 -5 0 -14 -13 -20 -30 -5 -16 -15 -30 -22 -30 -9 0 -10 18 -6 68 6 66 15 99
46 176 8 21 16 66 17 100 1 33 2 62 3 63 2 5 53 -18 90 -42z m-701 -127 c-6
-42 -27 -123 -43 -168 -7 -19 -27 -80 -45 -135 -18 -55 -53 -141 -76 -191 -24
-51 -44 -99 -44 -108 0 -9 -4 -16 -8 -16 -5 0 -14 -12 -21 -27 -17 -36 -103
-153 -113 -153 -13 0 -9 28 7 44 8 8 15 22 15 30 0 9 4 16 10 16 5 0 19 23 32
50 13 28 26 50 30 50 5 0 8 9 8 20 0 11 -4 20 -10 20 -16 0 -12 37 5 44 8 3
15 12 15 19 0 8 7 20 15 27 19 16 20 40 1 40 -7 0 -16 -10 -20 -22 -4 -19 -8
-20 -18 -10 -11 11 -10 16 3 25 8 7 18 19 22 27 4 8 13 24 19 35 63 98 100
166 94 172 -8 8 -26 -7 -26 -23 0 -8 -5 -14 -10 -14 -6 0 -13 -8 -17 -17 -3
-10 -19 -34 -35 -54 -15 -20 -28 -42 -28 -48 0 -6 -5 -11 -10 -11 -6 0 -14 -8
-17 -17 -4 -10 -26 -44 -50 -75 -24 -31 -43 -61 -43 -68 0 -6 -7 -13 -15 -16
-8 -4 -15 -13 -15 -20 0 -8 -7 -17 -15 -20 -8 -4 -15 -10 -15 -16 0 -7 -76
-114 -110 -155 -5 -7 -10 -15 -10 -18 0 -3 -8 -14 -17 -24 -33 -36 -43 -50
-43 -60 0 -6 -6 -14 -12 -18 -15 -9 -33 -37 -48 -70 -5 -13 -14 -23 -20 -23
-5 0 -10 -5 -10 -10 0 -6 -14 -29 -30 -52 -34 -46 -31 -68 3 -25 12 16 37 44
55 63 17 19 32 37 32 40 0 2 13 17 28 32 16 15 31 35 35 45 7 18 27 24 27 8 0
-5 -6 -16 -13 -23 -7 -7 -16 -20 -20 -28 -13 -25 -31 -53 -57 -90 -32 -45 -48
-71 -56 -92 -3 -10 -9 -18 -13 -18 -8 0 -45 -80 -39 -85 2 -2 34 38 70 88 37
51 73 99 80 108 20 25 37 52 48 77 5 12 14 22 20 22 5 0 10 6 10 14 0 8 7 16
15 20 18 6 21 -29 4 -39 -5 -4 -14 -17 -20 -28 -5 -12 -13 -29 -19 -37 -18
-27 -100 -170 -100 -175 0 -4 -79 -120 -114 -168 -31 -42 -51 -31 -53 28 -1
28 -4 101 -8 164 -5 106 -4 116 15 133 11 10 20 25 20 33 0 8 5 15 10 15 6 0
10 7 10 15 0 16 39 77 53 83 4 2 7 8 7 12 0 14 150 261 189 311 75 96 310 378
364 436 21 22 48 54 60 70 55 73 82 85 75 31z m1262 -196 c74 -43 85 -67 51
-113 -12 -15 -21 -32 -21 -36 0 -8 -24 -58 -131 -276 -37 -76 -66 -144 -63
-150 6 -16 -121 -173 -258 -320 -106 -114 -153 -155 -163 -145 -9 8 86 192
114 223 59 63 81 107 81 161 0 39 10 73 44 145 24 52 54 118 67 147 13 28 28
52 33 52 9 0 3 -114 -8 -145 -6 -16 -4 -15 13 5 11 14 23 41 26 60 4 19 12 51
20 70 12 32 54 199 74 292 9 41 27 68 45 68 6 0 40 -17 76 -38z m163 -94 c15
-11 27 -26 27 -34 0 -14 -166 -230 -217 -283 -23 -24 -31 -15 -14 17 34 64 92
201 112 267 23 70 33 74 92 33z m-1843 -516 c0 -13 -12 -22 -22 -16 -10 6 -1
24 13 24 5 0 9 -4 9 -8z m-99 -45 c-13 -13 -26 -3 -16 12 3 6 11 8 17 5 6 -4
6 -10 -1 -17z m1599 -138 c0 -12 -18 -45 -127 -229 -43 -74 -83 -142 -87 -150
-4 -8 -12 -24 -19 -35 -7 -11 -37 -63 -67 -115 -30 -52 -60 -104 -67 -115 -7
-11 -16 -27 -20 -35 -9 -19 -90 -160 -103 -180 -6 -8 -13 -22 -17 -30 -4 -8
-32 -58 -63 -110 -32 -52 -105 -178 -163 -280 -58 -102 -132 -230 -164 -285
-32 -55 -62 -107 -66 -115 -4 -8 -11 -22 -17 -30 -13 -20 -124 -211 -133 -230
-4 -8 -13 -24 -20 -35 -7 -11 -45 -78 -86 -150 -41 -71 -100 -174 -133 -228
-32 -55 -58 -100 -58 -102 0 -1 -37 -65 -81 -141 -45 -77 -93 -159 -107 -184
-14 -25 -45 -78 -69 -118 -24 -41 -43 -75 -43 -78 0 -2 -34 -60 -75 -129 -41
-69 -75 -127 -75 -130 0 -2 -26 -48 -58 -102 -32 -54 -62 -105 -65 -113 -4 -8
-11 -22 -17 -30 -13 -20 -124 -211 -133 -230 -4 -8 -13 -24 -20 -35 -7 -11
-50 -86 -96 -165 -102 -177 -179 -310 -191 -330 -5 -8 -26 -44 -46 -80 -57
-102 -121 -196 -175 -254 -100 -109 -250 -202 -409 -253 -80 -26 -96 -28 -265
-28 -176 0 -182 1 -275 32 -53 18 -116 44 -140 57 -25 14 -63 35 -84 47 -305
166 -503 514 -483 849 10 157 55 314 121 419 14 22 26 43 26 45 0 2 26 48 58
103 32 54 62 105 66 113 4 8 12 24 19 35 10 17 97 167 132 227 6 10 57 100
115 200 58 100 119 205 135 234 46 81 156 272 195 339 19 33 64 111 100 173
36 62 70 120 75 130 6 9 35 60 65 112 30 52 60 104 67 115 7 11 16 27 20 35 4
8 32 58 63 110 31 52 59 102 63 110 4 8 20 36 35 61 15 25 55 95 90 155 35 60
67 116 72 124 5 8 44 76 86 150 43 74 103 179 136 233 32 55 58 100 58 102 0
2 27 49 60 105 33 56 60 103 60 105 0 4 84 149 100 175 6 8 14 25 20 38 14 32
33 28 28 -5 -3 -16 -17 -73 -32 -128 -16 -59 -29 -141 -33 -200 -6 -107 -18
-135 -57 -135 -12 0 -51 -19 -86 -42 -58 -38 -72 -55 -127 -148 -34 -58 -69
-118 -78 -135 -9 -16 -20 -37 -25 -45 -19 -29 -130 -222 -130 -225 0 -2 -21
-39 -46 -82 -50 -83 -133 -226 -286 -493 -163 -283 -249 -431 -269 -464 -10
-17 -22 -38 -26 -46 -4 -8 -25 -46 -48 -85 -22 -38 -44 -77 -48 -85 -4 -8 -13
-24 -20 -35 -7 -11 -37 -63 -67 -115 -30 -52 -60 -104 -67 -115 -7 -11 -15
-27 -19 -35 -4 -8 -17 -31 -29 -50 -22 -36 -200 -344 -251 -435 -15 -27 -44
-77 -64 -110 -20 -33 -50 -88 -68 -121 -140 -273 -135 -612 14 -883 108 -197
313 -374 490 -426 91 -26 213 -45 294 -45 77 0 216 20 260 38 14 6 50 20 80
32 30 13 87 43 125 67 75 48 220 190 245 239 8 16 54 96 103 177 48 81 87 150
87 152 0 3 18 35 41 71 22 37 45 77 50 88 6 12 15 30 22 41 52 88 308 528 337
580 53 95 174 302 191 327 11 15 19 29 19 32 0 2 27 50 60 106 33 56 60 103
60 105 0 2 34 60 75 130 41 69 75 128 75 130 0 1 41 71 90 154 50 84 90 154
90 156 0 1 34 60 75 130 41 69 75 128 75 130 0 2 34 60 75 129 41 69 84 143
95 163 11 21 25 45 30 53 18 27 130 222 130 225 0 2 34 61 76 132 42 70 86
146 99 168 12 22 59 104 104 182 46 80 81 153 81 168 0 29 -37 70 -88 97 -18
9 -32 23 -31 30 0 7 41 47 91 88 112 94 365 343 438 432 53 66 70 79 70 57z
m-750 -142 c0 -112 19 -250 38 -269 12 -12 77 61 139 155 25 37 48 67 53 67 4
0 10 9 13 20 6 22 27 28 27 8 -1 -7 -45 -98 -98 -203 l-98 -190 -35 1 c-18 1
-101 13 -184 27 -82 15 -169 27 -192 27 -23 0 -44 4 -47 9 -3 5 51 76 120 157
69 82 153 186 187 231 33 45 64 80 69 77 4 -3 8 -56 8 -117z m-814 -81 c-4
-22 -9 -85 -12 -138 -4 -54 -11 -101 -18 -106 -6 -5 -51 -12 -99 -15 -70 -4
-90 -2 -94 9 -3 8 25 55 64 107 37 50 77 106 87 122 28 43 59 74 69 68 5 -3 6
-24 3 -47z m-407 -140 c8 -77 9 -122 3 -128 -9 -9 -145 -37 -179 -38 -20 0
-15 19 21 79 19 31 50 87 70 125 42 80 57 100 66 89 4 -4 12 -61 19 -127z
m637 -77 c10 -17 -23 -46 -37 -32 -7 7 -9 19 -6 27 7 18 33 21 43 5z m-221
-189 c9 -16 21 -30 28 -30 7 0 23 14 35 30 21 28 28 30 83 30 53 0 60 -3 68
-22 5 -13 6 -38 4 -55 -8 -49 19 -43 57 12 31 45 63 70 79 61 4 -3 73 -10 152
-16 174 -12 370 -47 393 -70 29 -29 -205 -72 -489 -91 -293 -18 -844 -2 -1015
31 -94 18 -182 39 -187 44 -11 10 10 26 34 26 14 0 39 6 56 14 37 16 151 36
222 39 l50 2 3 -42 c2 -29 8 -43 18 -43 8 0 14 6 14 13 0 6 13 27 28 45 34 40
75 49 234 51 l117 1 16 -30z m-672 -254 c70 -29 90 -115 38 -166 -36 -36 -73
-46 -112 -30 -42 18 -69 56 -69 99 0 45 22 79 64 97 39 17 40 17 79 0z m801
-443 c100 -36 176 -152 162 -249 -27 -201 -264 -285 -405 -144 -114 114 -83
307 61 377 79 39 109 41 182 16z m-801 -869 c73 -37 89 -109 38 -166 -25 -28
-36 -33 -75 -33 -119 0 -147 144 -39 200 35 19 37 19 76 -1z m-997 -694 c37
-24 58 -74 48 -116 -14 -62 -74 -94 -139 -76 -35 10 -75 63 -75 99 0 53 58
112 109 113 13 0 39 -9 57 -20z m607 -1060 c69 -60 73 -138 12 -196 -42 -39
-84 -48 -134 -28 -105 42 -115 175 -18 234 48 30 99 26 140 -10z"/>
<path d="M9464 12879 c-3 -5 6 -9 20 -9 31 0 34 6 6 13 -11 3 -23 1 -26 -4z"/>
<path d="M7691 12930 c-81 -21 -92 -40 -23 -40 50 0 142 33 142 50 0 14 -44
10 -119 -10z"/>
<path d="M6420 10300 c-12 -8 -11 -10 8 -10 12 0 22 5 22 10 0 13 -11 13 -30
0z"/>
<path d="M8770 12390 c36 -12 72 -12 65 0 -3 6 -25 10 -48 9 -36 -1 -38 -2
-17 -9z"/>
<path d="M8850 12370 c0 -5 12 -12 28 -16 15 -3 41 -12 57 -19 17 -7 55 -23
85 -35 77 -31 134 -56 325 -145 55 -26 114 -53 130 -60 17 -7 42 -18 57 -25
14 -7 32 -10 40 -7 7 2 2 8 -14 12 -16 4 -28 11 -28 15 0 5 -12 15 -27 23
-243 126 -346 175 -478 224 -22 8 -55 21 -73 29 -38 16 -102 19 -102 4z"/>
<path d="M9660 11882 c0 -9 85 -92 94 -92 11 0 6 35 -7 51 -11 15 -68 49 -82
49 -3 0 -5 -4 -5 -8z"/>
<path d="M8909 10762 c-70 -44 -257 -218 -246 -228 5 -5 44 13 57 26 3 3 34
30 70 60 133 111 203 195 119 142z"/>
<path d="M8332 10283 c-4 -10 -18 -38 -32 -63 -25 -46 -50 -108 -50 -124 0 -5
8 -2 18 6 9 9 31 22 47 31 46 23 88 68 75 81 -7 7 -16 7 -30 -2 -22 -13 -25
-10 -11 16 4 9 11 29 15 45 5 21 3 27 -9 27 -9 0 -19 -8 -23 -17z"/>
<path d="M8067 10003 c-4 -3 -7 -15 -7 -25 0 -11 -6 -31 -14 -46 -7 -15 -16
-57 -20 -94 -10 -99 15 -81 43 30 28 116 27 165 -2 135z"/>
<path d="M10046 11865 c-9 -26 -7 -308 3 -324 16 -25 26 54 25 192 -1 120 -12
172 -28 132z"/>
<path d="M9238 10539 c-36 -35 -79 -74 -96 -86 -30 -23 -47 -69 -29 -80 5 -3
15 1 22 10 7 10 26 17 43 17 26 0 36 7 58 42 41 65 76 137 72 150 -2 6 -34
-18 -70 -53z"/>
<path d="M8759 9628 c-107 -84 -225 -195 -216 -204 5 -5 46 14 57 27 3 3 12
10 21 15 52 29 189 159 189 178 0 8 6 17 13 19 6 3 7 6 1 6 -6 1 -35 -18 -65
-41z"/>
<path d="M7440 11050 c-11 -7 -6 -10 20 -10 26 0 31 3 20 10 -8 5 -17 10 -20
10 -3 0 -12 -5 -20 -10z"/>
<path d="M10725 10887 c-85 -51 -325 -270 -325 -296 0 -13 27 -15 32 -3 2 5
48 49 103 98 105 94 181 167 204 197 16 20 14 20 -14 4z"/>
<path d="M11163 10855 c-35 -24 -75 -55 -90 -69 -15 -15 -31 -26 -36 -26 -4 0
-38 -22 -75 -49 -37 -28 -89 -66 -117 -86 -175 -125 -185 -135 -146 -135 12 0
24 7 27 15 4 8 11 15 17 15 35 0 437 300 486 363 22 28 0 19 -66 -28z"/>
<path d="M9219 9487 c-75 -64 -159 -153 -159 -168 0 -25 59 22 174 136 79 79
92 95 74 95 -8 0 -48 -28 -89 -63z"/>
<path d="M8848 8660 c-7 -24 -3 -38 8 -28 3 4 4 17 2 30 l-3 23 -7 -25z"/>
<path d="M8968 8570 c-7 -24 -3 -38 8 -28 3 4 4 17 2 30 l-3 23 -7 -25z"/>
<path d="M7720 8268 c-13 -18 -28 -37 -32 -43 -27 -33 -108 -147 -108 -151 0
-3 -19 -31 -43 -62 -56 -76 -119 -167 -135 -197 -7 -14 -17 -25 -23 -25 -5 0
-9 -7 -9 -15 0 -9 -7 -18 -15 -21 -14 -6 -22 -44 -9 -44 8 0 84 83 84 92 0 4
8 17 18 27 9 11 22 26 27 33 29 38 52 68 65 88 8 12 21 28 28 36 6 7 12 15 12
18 0 4 25 42 55 87 31 44 60 90 66 102 5 12 18 37 30 56 27 45 19 60 -11 19z"/>
<path d="M6863 6744 c-10 -28 13 -37 25 -9 10 21 9 25 -4 25 -8 0 -17 -7 -21
-16z"/>
<path d="M7594 6222 c-28 -20 -40 -92 -14 -92 8 0 50 78 50 93 0 9 -22 9 -36
-1z"/>
<path d="M6420 3721 c-11 -21 -14 -51 -4 -51 7 0 64 57 64 64 0 15 -50 4 -60
-13z"/>
<path d="M590 2300 c-115 -15 -209 -70 -263 -154 -31 -49 -32 -56 -32 -151 0
-97 1 -102 33 -147 40 -58 86 -91 172 -122 85 -30 173 -56 193 -56 20 0 86
-29 110 -49 24 -20 21 -63 -6 -82 -30 -22 -113 -32 -166 -20 -56 12 -101 55
-101 95 0 58 -7 61 -142 61 l-123 0 -3 -65 c-5 -107 50 -200 156 -263 88 -53
171 -71 294 -64 228 12 363 117 384 303 4 30 10 54 15 54 5 0 13 -18 19 -41
50 -186 239 -319 452 -319 226 0 392 139 430 360 11 61 10 73 -2 81 -8 5 -67
8 -130 7 l-115 -3 -21 -63 c-12 -34 -32 -74 -45 -89 -92 -99 -255 -50 -305 93
-25 68 -28 154 -9 220 35 123 92 174 194 174 52 0 65 -4 102 -33 30 -22 47
-45 54 -70 6 -21 17 -42 25 -47 19 -12 220 -13 239 -1 31 20 -9 165 -65 238
-38 50 -124 111 -189 133 -81 28 -248 28 -328 1 -199 -69 -317 -250 -317 -488
0 -57 -4 -103 -8 -103 -5 0 -16 17 -25 38 -23 52 -81 109 -141 137 -50 24
-170 59 -255 76 -120 24 -152 102 -52 128 47 13 117 -1 144 -28 12 -12 26 -38
32 -59 l11 -37 124 0 125 0 0 65 c0 73 -24 131 -78 188 -75 79 -237 122 -387
102z m182 -81 c67 -14 116 -39 149 -76 80 -87 73 -145 -16 -129 -27 5 -40 16
-60 49 -33 58 -94 87 -181 87 -108 0 -184 -56 -184 -137 0 -76 52 -115 200
-152 209 -52 271 -82 310 -149 30 -50 31 -168 2 -214 -31 -49 -71 -84 -127
-110 -44 -20 -65 -23 -180 -23 -114 0 -137 3 -188 24 -69 28 -143 104 -153
157 -8 46 3 56 57 52 39 -3 46 -7 61 -38 30 -60 73 -96 136 -114 108 -30 203
-12 262 49 31 32 35 42 35 90 0 43 -5 58 -25 80 -32 34 -78 57 -160 79 -243
67 -303 98 -334 176 -77 193 136 354 396 299z m919 -3 c92 -22 177 -89 216
-171 23 -48 12 -65 -41 -65 -43 0 -47 3 -85 54 -54 73 -112 101 -206 101 -118
-1 -190 -49 -244 -165 -23 -50 -26 -67 -25 -175 0 -134 12 -180 65 -247 18
-22 50 -52 73 -66 37 -24 50 -27 136 -27 85 0 99 3 130 25 45 31 54 43 90 113
30 56 31 57 74 57 60 0 68 -14 43 -78 -26 -68 -90 -139 -159 -177 -51 -29 -58
-30 -178 -30 -147 1 -185 14 -272 94 -70 64 -112 149 -126 254 -45 340 195
578 509 503z"/>
<path d="M4590 2300 c-115 -15 -217 -73 -287 -163 -88 -113 -113 -191 -113
-347 0 -155 37 -264 123 -357 189 -207 542 -204 700 5 54 72 71 110 88 196 12
64 12 69 -6 82 -25 19 -228 20 -243 2 -5 -7 -17 -38 -25 -68 -34 -117 -144
-162 -252 -102 -153 84 -153 397 0 492 23 14 49 20 91 20 77 -1 131 -36 155
-99 8 -23 22 -47 30 -52 16 -10 192 -12 227 -3 22 6 23 10 16 63 -27 221 -246
365 -504 331z m185 -84 c97 -25 176 -84 213 -159 30 -59 22 -77 -34 -77 -46 0
-48 1 -95 67 -80 112 -266 122 -373 20 -53 -51 -82 -114 -95 -211 -18 -125 18
-263 84 -329 62 -61 92 -72 196 -72 96 0 96 0 141 37 27 22 57 61 75 95 24 47
34 59 57 61 41 5 76 -6 76 -24 0 -36 -61 -144 -102 -179 -80 -68 -118 -80
-253 -80 -111 1 -124 3 -177 29 -213 105 -290 390 -171 633 28 56 101 131 157
160 80 42 209 54 301 29z"/>
<path d="M6710 2300 c-271 -35 -437 -296 -392 -616 34 -238 230 -404 478 -404
184 0 346 97 421 253 108 223 71 479 -92 643 -102 102 -249 146 -415 124z
m195 -84 c129 -34 215 -115 267 -254 32 -84 32 -262 0 -346 -42 -108 -99 -171
-207 -229 -35 -19 -56 -21 -170 -21 -116 0 -135 2 -180 23 -63 30 -156 123
-184 184 -105 230 -29 513 164 614 78 40 219 54 310 29z"/>
<path d="M6697 2124 c-114 -35 -188 -165 -188 -334 -1 -145 50 -250 151 -313
30 -19 50 -22 131 -22 89 0 99 2 145 30 51 32 90 82 117 153 26 67 23 243 -5
319 -31 82 -106 154 -177 171 -67 15 -114 14 -174 -4z m199 -93 c71 -50 104
-127 104 -240 0 -158 -84 -271 -203 -271 -51 0 -130 35 -153 68 -47 65 -56
105 -53 219 4 97 7 113 32 156 41 69 87 96 168 96 57 1 71 -3 105 -28z"/>
<path d="M2097 2275 c-15 -15 -17 -62 -17 -484 0 -350 3 -470 12 -479 17 -17
239 -17 256 0 9 9 12 129 12 479 0 421 -2 468 -17 480 -11 9 -51 15 -123 17
-89 3 -110 1 -123 -13z m167 -71 c14 -5 16 -51 16 -408 0 -299 -3 -405 -12
-414 -14 -14 -77 -16 -98 -2 -13 8 -15 65 -18 393 -1 239 1 394 8 411 8 22 16
26 49 26 22 0 46 -3 55 -6z"/>
<path d="M2480 2283 c-8 -3 -18 -11 -22 -17 -9 -13 -11 -927 -2 -950 5 -14 48
-16 379 -16 251 0 376 3 380 11 9 13 8 219 0 228 -4 3 -106 7 -228 8 -122 1
-230 4 -239 7 -14 3 -18 15 -18 54 0 87 -13 82 214 82 110 0 207 4 214 8 9 6
12 36 10 113 l-3 104 -205 5 c-113 3 -211 9 -217 13 -11 7 -19 92 -10 99 1 1
108 4 237 7 l235 6 0 115 0 115 -30 6 c-37 8 -674 10 -695 2z m655 -118 l0
-40 -235 -5 -235 -5 -3 -132 -3 -133 205 0 c173 0 207 -2 220 -16 18 -18 20
-32 6 -54 -8 -12 -45 -15 -212 -17 -112 -2 -206 -3 -211 -3 -4 0 -6 -64 -5
-142 l3 -143 232 -3 c213 -2 233 -4 242 -21 6 -10 7 -31 2 -47 l-7 -29 -286
-3 c-250 -2 -288 0 -302 14 -14 14 -16 63 -16 408 0 294 3 395 12 404 9 9 85
12 303 10 l290 -3 0 -40z"/>
<path d="M3297 2275 c-15 -15 -17 -62 -17 -484 0 -350 3 -470 12 -479 17 -17
229 -17 246 0 9 9 12 75 12 235 0 194 2 223 15 223 9 0 19 -8 22 -17 4 -10 25
-47 48 -83 36 -55 118 -188 158 -255 7 -10 26 -39 43 -65 l31 -45 117 -3 c79
-2 123 1 132 9 12 9 14 91 14 478 0 276 -4 472 -10 481 -12 19 -207 28 -239
11 -20 -11 -21 -18 -21 -241 0 -126 -4 -231 -9 -234 -8 -5 -37 35 -88 119 -7
11 -45 73 -85 138 -40 65 -78 128 -85 140 -7 12 -23 36 -37 52 -24 30 -26 30
-133 33 -92 3 -113 1 -126 -13z m225 -110 c15 -22 53 -82 85 -133 32 -52 66
-106 75 -120 10 -15 22 -36 28 -47 29 -57 157 -250 173 -259 12 -8 22 -8 35 0
15 10 17 37 20 294 1 195 6 288 14 297 7 9 26 13 47 11 l36 -3 0 -415 0 -415
-34 -3 c-60 -6 -94 6 -116 41 -33 51 -157 252 -190 307 -90 149 -149 241 -161
251 -7 6 -23 9 -36 7 l-23 -3 -3 -292 c-2 -285 -3 -293 -23 -304 -12 -6 -36
-8 -55 -4 l-34 6 0 409 c0 317 3 410 13 414 6 2 37 4 67 3 51 -2 56 -4 82 -42z"/>
<path d="M5182 2277 c-9 -11 -12 -137 -10 -493 l3 -479 375 0 375 0 3 113 3
112 -28 11 c-16 6 -110 10 -227 9 -111 -1 -207 -1 -213 -1 -9 1 -13 22 -13 71
l0 70 203 0 c111 0 208 4 215 9 10 6 14 35 14 104 0 53 -3 101 -7 107 -4 6
-80 10 -210 10 -112 0 -206 4 -209 9 -12 19 -15 85 -5 98 9 10 62 13 239 13
199 0 229 2 234 16 10 25 7 198 -4 214 -14 22 -720 29 -738 7z m657 -81 c7 -8
11 -27 9 -43 l-3 -28 -229 -3 c-149 -1 -234 -6 -243 -13 -15 -13 -19 -244 -4
-253 4 -3 98 -6 207 -6 109 -1 206 -6 216 -11 23 -12 23 -55 1 -67 -10 -5
-107 -10 -215 -10 -109 -1 -202 -4 -208 -7 -11 -7 -14 -242 -4 -269 5 -14 35
-16 231 -16 135 0 232 -4 244 -10 26 -14 26 -66 0 -80 -26 -14 -556 -14 -582
0 -18 10 -19 25 -19 408 0 296 3 401 12 410 9 9 88 12 294 12 233 0 284 -2
293 -14z"/>
<path d="M7353 2282 c-10 -6 -13 -119 -13 -487 0 -263 3 -482 8 -487 4 -4 165
-7 358 -6 l349 3 3 105 c1 58 -2 112 -8 120 -8 12 -44 15 -212 17 -111 2 -208
5 -215 7 -10 4 -13 82 -13 361 l0 355 -26 10 c-30 12 -214 13 -231 2z m175
-84 c9 -9 12 -101 12 -354 0 -188 3 -349 6 -358 5 -14 33 -16 201 -16 115 0
202 -4 214 -10 22 -12 26 -59 7 -78 -9 -9 -83 -12 -269 -12 -221 0 -260 2
-273 16 -14 13 -16 64 -16 408 0 291 3 395 12 404 7 7 30 12 53 12 23 0 46 -5
53 -12z"/>
<path d="M7850 2275 c-10 -12 -5 -27 29 -82 23 -38 46 -75 51 -83 5 -8 64
-106 130 -217 l120 -202 0 -184 c0 -145 3 -187 14 -196 9 -8 55 -11 137 -9
l124 3 5 185 c5 187 8 201 50 265 11 17 23 37 27 45 4 8 20 34 35 56 15 23 28
44 28 47 0 4 12 25 28 49 41 65 50 79 77 128 14 25 43 72 65 105 42 66 48 90
24 99 -9 3 -71 6 -138 6 -146 0 -131 11 -237 -170 -40 -69 -77 -128 -83 -132
-6 -4 -16 -2 -22 5 -13 15 -104 166 -104 173 0 10 -63 99 -78 112 -24 19 -266
17 -282 -3z m248 -81 c12 -8 22 -19 22 -24 0 -5 43 -81 96 -169 62 -102 103
-161 113 -161 10 0 52 63 116 171 55 95 106 178 113 185 16 16 108 19 117 4 4
-6 -14 -45 -40 -88 -25 -42 -52 -86 -58 -97 -7 -11 -24 -39 -39 -63 -16 -24
-28 -45 -28 -47 0 -7 -92 -159 -107 -176 -10 -12 -13 -57 -13 -177 0 -149 -1
-162 -19 -172 -11 -5 -32 -10 -48 -10 -56 0 -58 6 -60 167 -1 81 -2 153 -3
159 0 5 -65 119 -145 253 -80 133 -143 246 -140 252 10 15 98 10 123 -7z"/>
<path d="M8867 2278 c-16 -12 -17 -51 -15 -493 l3 -480 125 0 125 0 3 190 c1
104 7 194 12 199 5 5 15 -7 25 -30 19 -44 72 -193 85 -239 12 -41 33 -97 43
-112 9 -14 183 -18 204 -5 11 7 35 63 53 127 18 63 71 207 86 237 11 21 18 27
24 18 4 -6 6 -91 5 -188 -2 -112 1 -182 7 -189 14 -18 229 -18 246 -1 9 9 12
129 12 478 0 440 -1 468 -18 483 -16 14 -43 17 -161 17 -78 0 -150 -4 -160 -9
-10 -6 -23 -29 -31 -53 -7 -24 -39 -122 -70 -218 -32 -96 -60 -188 -64 -203
-15 -62 -37 -26 -103 168 -35 105 -72 212 -81 240 -11 33 -25 54 -42 62 -35
17 -290 18 -313 1z m277 -90 c8 -13 35 -84 60 -158 25 -74 69 -204 97 -287 39
-114 56 -154 71 -159 36 -11 45 4 96 166 105 335 137 427 150 443 12 14 31 17
98 17 45 0 89 -3 98 -6 14 -5 16 -51 16 -414 0 -444 3 -420 -55 -420 -57 0
-55 -14 -55 315 0 167 -3 310 -6 319 -7 19 -47 21 -62 4 -5 -7 -17 -33 -25
-58 -9 -25 -52 -151 -97 -280 -45 -129 -85 -246 -89 -259 -15 -50 -103 -53
-122 -3 -16 40 -135 382 -170 487 -33 99 -59 131 -90 115 -18 -10 -19 -28 -21
-318 l-3 -307 -26 -9 c-14 -5 -38 -6 -53 -2 l-26 6 0 409 c0 224 3 411 7 414
3 4 48 7 99 7 86 0 95 -2 108 -22z"/>
<path d="M10027 2278 c-16 -12 -17 -51 -15 -493 l3 -480 130 0 130 0 3 152 c2
133 5 154 20 162 9 5 76 11 147 13 104 4 139 9 176 26 96 45 150 112 175 219
14 58 14 79 4 138 -27 154 -121 242 -284 264 -111 16 -467 15 -489 -1z m547
-88 c205 -77 210 -376 7 -467 -27 -12 -77 -17 -199 -21 -113 -3 -165 -8 -168
-16 -2 -6 -6 -76 -7 -154 -2 -155 -5 -162 -60 -162 -16 0 -37 5 -48 10 -18 10
-19 26 -19 415 0 313 3 404 13 408 6 3 105 6 219 6 185 1 213 -1 262 -19z"/>
<path d="M10215 2120 c-14 -22 -7 -322 7 -332 7 -5 72 -7 144 -5 147 4 184 17
223 81 30 48 29 141 -2 186 -41 63 -75 74 -228 78 -102 3 -138 1 -144 -8z
m253 -75 c47 -14 52 -19 62 -55 8 -30 7 -47 -3 -73 -20 -46 -55 -58 -158 -55
l-84 3 -3 85 c-2 71 0 87 14 97 24 18 109 16 172 -2z"/>
<path d="M10880 2283 c-8 -3 -18 -11 -22 -17 -4 -6 -8 -220 -8 -476 0 -349 3
-469 12 -478 8 -8 52 -12 134 -12 102 0 123 3 128 16 3 9 6 227 6 485 l0 469
-26 10 c-27 11 -198 12 -224 3z m170 -92 c6 -13 10 -158 10 -405 0 -430 2
-416 -70 -416 -29 0 -42 5 -50 19 -15 30 -14 793 2 809 7 7 31 12 55 12 32 0
45 -5 53 -19z"/>
<path d="M11554 2282 c-17 -11 -27 -33 -104 -237 -40 -105 -81 -212 -92 -240
-11 -27 -23 -61 -28 -75 -5 -14 -18 -50 -30 -80 -35 -90 -51 -134 -59 -160 -5
-14 -21 -56 -36 -93 -15 -37 -24 -75 -21 -82 4 -12 31 -15 135 -15 l129 0 15
33 c8 17 22 57 32 87 9 30 24 61 33 68 23 18 265 17 281 -1 6 -8 23 -49 37
-93 15 -43 32 -82 38 -86 17 -12 264 -10 271 2 4 6 -12 61 -35 123 -58 155
-99 266 -115 307 -66 170 -85 221 -98 260 -9 25 -26 70 -37 100 -12 30 -25 66
-30 80 -22 66 -41 98 -62 104 -32 8 -211 7 -224 -2z m224 -162 c37 -94 46
-117 92 -240 17 -47 38 -102 46 -122 45 -120 68 -181 105 -281 36 -99 34 -107
-31 -107 -54 0 -57 5 -105 145 l-21 60 -188 3 c-129 2 -193 -1 -202 -9 -8 -6
-18 -25 -23 -43 -20 -68 -51 -140 -63 -148 -17 -10 -70 -10 -87 1 -15 10 -14
15 46 176 17 44 47 125 67 180 21 55 41 109 46 120 5 11 21 52 35 90 14 39 29
79 34 90 5 11 19 48 32 83 31 88 38 93 117 90 l66 -3 34 -85z"/>
<path d="M11592 1923 c-79 -215 -86 -238 -79 -256 6 -15 25 -17 156 -17 85 0
152 4 156 10 3 5 -17 76 -45 157 -28 81 -55 163 -60 181 -11 43 -27 62 -55 62
-20 0 -29 -16 -73 -137z m109 -105 c29 -83 27 -88 -30 -88 -28 0 -52 4 -55 9
-13 21 47 152 62 136 3 -2 13 -28 23 -57z"/>
<path d="M12216 2274 c-14 -14 -16 -71 -16 -479 0 -255 3 -470 6 -479 5 -14
35 -16 233 -16 262 0 327 8 406 46 177 87 268 303 231 549 -32 215 -150 343
-351 381 -43 8 -151 13 -282 13 -179 1 -214 -1 -227 -15z m549 -85 c67 -23
136 -70 162 -108 80 -118 104 -280 64 -427 -28 -105 -61 -158 -130 -208 -83
-60 -123 -69 -350 -74 -189 -4 -206 -3 -218 14 -18 25 -19 794 -1 812 9 9 70
12 213 12 178 0 208 -2 260 -21z"/>
<path d="M12415 2108 c-3 -7 -4 -153 -3 -323 l3 -310 115 -3 c63 -2 139 2 168
8 140 31 222 215 178 403 -27 117 -67 170 -156 211 -57 26 -296 37 -305 14z
m249 -78 c51 -11 86 -38 113 -86 20 -34 23 -53 23 -154 0 -101 -3 -120 -23
-154 -37 -65 -66 -80 -170 -87 -51 -3 -100 -2 -109 3 -16 8 -18 30 -18 243 0
177 3 235 13 238 21 9 130 7 171 -3z"/>
<path d="M3112 878 c-7 -7 -12 -26 -12 -43 0 -45 16 -55 87 -55 51 0 64 -3 73
-19 6 -12 9 -99 9 -221 -1 -110 1 -203 4 -206 3 -3 24 -8 48 -11 67 -9 69 -3
69 238 0 233 -6 219 83 219 67 0 81 10 81 55 0 21 -6 40 -14 46 -23 14 -413
12 -428 -3z"/>
<path d="M4161 871 c-136 -55 -209 -210 -166 -356 23 -82 63 -135 127 -170 46
-26 63 -30 133 -29 64 0 89 5 125 23 55 29 96 72 122 130 29 63 27 203 -3 263
-65 130 -211 190 -338 139z m186 -123 c41 -38 53 -72 53 -149 0 -54 -5 -80
-21 -108 -68 -122 -237 -87 -267 56 -21 98 24 208 93 226 42 12 118 -2 142
-25z"/>
<path d="M6732 878 c-9 -9 -12 -84 -12 -275 0 -249 1 -263 19 -273 11 -5 69
-10 129 -10 117 0 198 17 242 52 88 69 121 219 80 362 -16 52 -85 119 -145
139 -60 21 -294 24 -313 5z m278 -116 c71 -35 101 -156 62 -244 -26 -58 -56
-78 -130 -85 -102 -9 -102 -9 -102 177 0 117 3 160 13 163 30 13 124 6 157
-11z"/>
<path d="M7382 878 c-9 -9 -12 -84 -12 -275 0 -249 1 -263 19 -273 11 -5 71
-10 134 -10 174 0 247 32 303 132 27 49 29 61 28 158 0 116 -10 147 -67 208
-52 54 -118 72 -265 72 -86 0 -132 -4 -140 -12z m272 -112 c46 -19 73 -58 81
-115 10 -77 -3 -139 -39 -178 -27 -30 -39 -34 -97 -40 -109 -10 -109 -10 -109
170 0 106 4 157 12 165 16 16 111 15 152 -2z"/>
<path d="M8572 881 c-18 -11 -18 -527 0 -548 8 -10 55 -13 193 -13 204 0 209
1 203 67 l-3 38 -137 5 c-75 3 -139 7 -142 10 -8 9 -10 109 -2 117 4 5 62 10
129 13 l122 5 3 37 c4 46 0 47 -148 51 l-105 2 0 55 0 55 135 5 135 5 9 27 c7
18 6 35 -2 53 l-12 25 -182 0 c-101 0 -189 -4 -196 -9z"/>
<path d="M9548 876 c-55 -20 -86 -43 -108 -79 -25 -40 -26 -114 -3 -147 35
-51 46 -56 213 -106 67 -20 90 -39 90 -74 0 -43 -31 -63 -98 -64 -58 -1 -111
23 -112 51 0 25 -32 43 -75 43 -49 0 -59 -13 -45 -61 12 -41 44 -75 95 -102
62 -32 204 -30 265 3 61 34 90 80 90 143 0 66 -28 111 -91 142 -26 14 -56 25
-66 25 -28 0 -129 34 -147 49 -22 18 -20 54 3 75 46 41 135 24 160 -30 11 -26
43 -37 87 -32 27 3 29 6 28 41 -3 97 -164 166 -286 123z"/>
<path d="M10170 873 c-89 -31 -144 -92 -174 -193 -21 -69 -20 -95 4 -172 23
-75 73 -139 134 -170 31 -16 60 -22 121 -22 70 0 86 3 127 27 68 41 133 152
106 184 -24 29 -103 12 -117 -26 -31 -80 -120 -107 -192 -58 -45 30 -62 68
-67 147 -6 120 58 197 157 187 38 -4 52 -12 88 -52 40 -43 47 -46 86 -43 35 2
43 7 45 26 4 26 -46 109 -81 133 -69 48 -157 60 -237 32z"/>
<path d="M11462 869 c-61 -24 -112 -71 -144 -132 -32 -60 -32 -213 0 -273 57
-110 118 -147 242 -148 101 0 147 19 204 86 102 118 83 339 -36 430 -76 58
-175 72 -266 37z m186 -116 c60 -44 80 -174 40 -253 -54 -105 -188 -112 -249
-13 -19 31 -24 52 -24 114 0 93 25 138 95 171 27 13 110 2 138 -19z"/>
<path d="M12150 871 c-69 -27 -88 -42 -125 -96 -67 -102 -70 -241 -6 -345 84
-137 299 -159 415 -44 57 58 71 99 71 214 0 97 -2 108 -28 152 -69 115 -208
166 -327 119z m156 -107 c51 -24 74 -63 80 -136 8 -81 -8 -139 -46 -172 -95
-79 -211 -36 -239 88 -36 160 77 281 205 220z"/>
<path d="M352 858 c-16 -16 -17 -489 -2 -519 12 -21 59 -26 91 -9 17 10 19 22
19 113 0 67 4 107 12 115 13 13 163 17 192 6 13 -5 16 -24 16 -108 0 -55 4
-107 9 -114 10 -16 81 -26 98 -15 9 7 13 76 13 266 1 141 -2 261 -5 267 -9 14
-88 13 -103 -2 -7 -7 -12 -44 -12 -95 l0 -84 -107 3 -108 3 -5 90 -5 90 -45 3
c-26 2 -50 -2 -58 -10z"/>
<path d="M1143 858 c-9 -13 -27 -55 -58 -138 -19 -51 -33 -88 -90 -234 -54
-138 -54 -160 -7 -164 45 -5 75 18 92 67 7 23 18 45 23 48 14 8 114 12 164 6
40 -5 43 -8 60 -55 20 -57 39 -70 91 -66 56 5 54 16 -48 278 -12 30 -25 66
-30 80 -17 49 -47 125 -61 155 -13 27 -19 30 -70 33 -37 2 -59 -1 -66 -10z
m99 -225 c14 -43 24 -81 21 -85 -7 -13 -123 -9 -123 4 0 25 55 158 65 158 6 0
23 -35 37 -77z"/>
<path d="M1606 854 c-3 -9 -6 -127 -6 -263 0 -179 3 -250 12 -259 16 -16 70
-16 86 0 8 8 12 59 12 165 0 84 3 153 8 153 13 0 33 -39 57 -114 69 -204 76
-216 120 -216 45 0 53 14 105 168 40 122 58 162 72 162 4 0 9 -71 10 -157 l3
-158 26 -9 c14 -5 38 -6 53 -2 l26 6 -2 268 -3 267 -76 3 c-54 2 -79 -1 -87
-11 -6 -7 -29 -71 -52 -142 -68 -218 -75 -225 -108 -117 -34 111 -83 246 -94
260 -7 7 -37 12 -83 12 -57 0 -74 -3 -79 -16z"/>
<path d="M2382 858 c-9 -9 -12 -80 -12 -259 0 -212 2 -250 16 -263 18 -19 75
-21 92 -4 9 9 12 80 12 259 0 136 -3 254 -6 263 -7 19 -84 22 -102 4z"/>
<path d="M2681 856 c-9 -10 -11 -84 -9 -265 3 -211 5 -253 18 -261 8 -5 90
-10 181 -10 187 0 192 2 187 67 l-3 38 -123 5 c-89 4 -125 9 -131 19 -5 7 -9
100 -9 206 0 107 -3 198 -7 204 -9 16 -90 14 -104 -3z"/>
<path d="M3717 863 c-4 -3 -7 -125 -7 -269 l0 -264 25 -6 c30 -7 77 3 87 19
13 21 10 501 -4 515 -13 13 -90 17 -101 5z"/>
<path d="M4702 858 c-16 -16 -17 -490 -2 -519 12 -22 68 -27 88 -7 8 8 12 59
12 165 0 147 1 153 20 153 12 0 24 -10 29 -22 5 -13 29 -53 53 -90 24 -37 63
-99 88 -138 46 -73 70 -87 131 -78 l24 3 5 258 c3 142 1 265 -3 273 -10 17
-78 19 -95 2 -8 -8 -12 -58 -12 -160 0 -174 -7 -183 -66 -85 -21 34 -66 106
-101 160 l-63 97 -48 0 c-26 0 -53 -5 -60 -12z"/>
<path d="M5637 863 c-13 -12 -8 -518 5 -531 17 -17 74 -15 92 4 13 13 16 42
16 166 0 167 9 184 42 78 11 -36 26 -81 33 -100 54 -143 57 -150 83 -157 51
-12 70 12 119 152 25 72 48 141 52 155 17 56 26 12 29 -132 3 -167 6 -178 63
-178 57 0 59 8 59 279 0 179 -3 250 -12 259 -7 7 -41 12 -85 12 -84 0 -83 1
-123 -130 -12 -41 -28 -91 -35 -110 -7 -19 -17 -48 -21 -65 -18 -59 -36 -35
-87 110 -26 77 -51 149 -54 160 -4 11 -11 23 -17 27 -14 10 -150 10 -159 1z"/>
<path d="M6410 850 c-7 -14 -10 -103 -8 -266 3 -273 2 -268 71 -260 21 2 41 6
43 9 8 8 8 512 0 525 -4 6 -27 12 -51 12 -34 0 -47 -5 -55 -20z"/>
<path d="M8035 857 c-3 -7 -4 -129 -3 -272 l3 -260 177 -3 c191 -3 208 2 208
53 0 53 -4 55 -125 55 -62 0 -120 3 -129 6 -14 5 -16 33 -16 208 0 144 -3 205
-12 214 -16 16 -97 16 -103 -1z"/>
<path d="M10672 858 c-9 -9 -12 -75 -12 -259 0 -212 2 -250 16 -263 16 -17 44
-20 82 -10 21 6 22 11 22 114 0 80 4 111 14 119 9 8 47 11 107 9 l94 -3 5
-113 c5 -123 10 -132 65 -132 61 0 60 -4 63 271 2 181 0 255 -9 265 -14 17
-90 19 -107 2 -7 -7 -12 -44 -12 -95 l0 -83 -105 0 c-121 0 -113 -7 -117 115
l-3 70 -45 3 c-26 2 -50 -2 -58 -10z"/>
<path d="M12687 863 c-13 -12 -8 -518 5 -531 15 -15 330 -17 359 -2 12 7 19
21 19 40 0 59 -3 60 -119 60 -167 0 -151 -22 -151 214 0 144 -3 205 -12 214
-13 13 -90 17 -101 5z"/>
</g>
</svg>
