<?xml version="1.0" encoding="UTF-8" standalone="no"?>
<svg xmlns="http://www.w3.org/2000/svg" width="2949.3376" height="1702.8011" version="1.0" viewBox="0 0 2212.0032 1277.1008">
<defs>
<pattern id="wiscio" x="0" y="0" width="2212.0032" height="1277.1008" patternTransform="scale(0.07)" patternUnits="userSpaceOnUse">
  <defs>
    <clipPath id="d" clipPathUnits="userSpaceOnUse">
      <path fill="none" fill-rule="evenodd" stroke="#000" stroke-width=".75" d="M1052.6672 1278.4497h2212.0032v1277.1007H1052.6672z"/>
    </clipPath>
    <clipPath id="c" clipPathUnits="userSpaceOnUse">
      <path fill="none" fill-rule="evenodd" stroke="#000" stroke-width=".75" d="M-1159.3361 1278.4496h2212.0032v1277.1007h-2212.0032z"/>
    </clipPath>
    <clipPath id="b" clipPathUnits="userSpaceOnUse">
      <path fill="none" fill-rule="evenodd" stroke="#000" stroke-width=".75" d="M-53.3344 1917h2212.0032v1277.1007H-53.3344z"/>
    </clipPath>
    <clipPath id="a" clipPathUnits="userSpaceOnUse">
      <path fill="none" fill-rule="evenodd" stroke="#000" stroke-width=".75" d="M-53.3344 639.8993h2212.0032V1917H-53.3344z"/>
    </clipPath>
  </defs>
  <g clip-path="url(#a)" transform="translate(53.3344 -639.8993)">
    <g fill="#000" stroke="none" color="#000" font-family="sans-serif" font-weight="400">
      <path d="M907.3955 1464.1274a28.1278 28.1278 0 00-13.3623 3.8936l-474.4204 271.396-.7778 360.6328 56.1797 32.6748.7778-360.6416 446.1724-255.2373a28.1278 28.1278 0 00-14.5694-52.7183zm-488.8037 748.5718l-.3677 170.483a28.1278 28.1278 0 0027.6387 28.582 28.1278 28.1278 0 0028.6113-28.4605l.2974-137.9297z" overflow="visible" style="line-height:normal;font-variant-ligatures:normal;font-variant-position:normal;font-variant-caps:normal;font-variant-numeric:normal;font-variant-alternates:normal;font-feature-settings:normal;text-indent:0;text-align:start;text-decoration-line:none;text-decoration-style:solid;text-decoration-color:#000;text-transform:none;text-orientation:mixed;white-space:normal;shape-padding:0;isolation:auto;mix-blend-mode:normal;solid-color:#000;solid-opacity:1"/>
      <path d="M964.2505 1377.4203c-20.0124 0-39.2245 7.9577-53.3754 22.1086s-22.1086 33.363-22.1086 53.3754 7.9577 39.2245 22.1086 53.3754c14.151 14.1509 33.363 22.1086 53.3754 22.1086s39.2245-7.9577 53.3754-22.1086 22.1086-33.363 22.1086-53.3754-7.9577-39.2245-22.1086-53.3754-33.363-22.1086-53.3754-22.1086zm0 37.5a37.9589 37.9589 0 0126.8588 11.1252 37.959 37.959 0 0111.1252 26.8588 37.959 37.959 0 01-11.1252 26.8588 37.9589 37.9589 0 01-26.8588 11.1252 37.9589 37.9589 0 01-26.8588-11.1252 37.959 37.959 0 01-11.1252-26.8588 37.959 37.959 0 0111.1252-26.8588 37.9589 37.9589 0 0126.8588-11.1252zM1239.1738 1849.4209a28.1278 28.1278 0 00-13.355 3.9213l-119.556 68.6822-.2066 64.9892 147.7821-84.898a28.1278 28.1278 0 0010.9337-38.2265 28.1278 28.1278 0 00-25.5982-14.4682zm-1002.7573 45.5976a28.1278 28.1278 0 00-13.0357 52.6157l472.2466 275.1621 312.75-179.6674.205-64.9893L695.8267 2157.81l-444.1274-258.7778a28.1278 28.1278 0 00-15.2827-4.0137z" overflow="visible" style="line-height:normal;font-variant-ligatures:normal;font-variant-position:normal;font-variant-caps:normal;font-variant-numeric:normal;font-variant-alternates:normal;font-feature-settings:normal;text-indent:0;text-align:start;text-decoration-line:none;text-decoration-style:solid;text-decoration-color:#000;text-transform:none;text-orientation:mixed;white-space:normal;shape-padding:0;isolation:auto;mix-blend-mode:normal;solid-color:#000;solid-opacity:1"/>
      <path d="M109.8105 1932.1242c10.0062 17.3312 26.5038 29.9905 45.8343 35.1701 19.3305 5.1796 39.9475 2.4651 57.2787-7.541 17.3313-10.0063 29.9906-26.5039 35.1702-45.8344 5.1796-19.3305 2.4651-39.9475-7.541-57.2787-10.0063-17.3313-26.504-29.9906-45.8344-35.1702-19.3305-5.1796-39.9475-2.465-57.2788 7.5411-17.3312 10.0062-29.9905 26.5038-35.1701 45.8343-5.1796 19.3305-2.4651 39.9475 7.541 57.2788zm32.476-18.75a37.9589 37.9589 0 01-3.7948-28.823 37.959 37.959 0 0117.6978-23.0641 37.959 37.959 0 0128.823-3.7947 37.9589 37.9589 0 0123.0642 17.6978 37.9589 37.9589 0 013.7946 28.823 37.959 37.959 0 01-17.6978 23.064 37.959 37.959 0 01-28.823 3.7948 37.9589 37.9589 0 01-23.064-17.6978z" overflow="visible" style="line-height:normal;font-variant-ligatures:normal;font-variant-position:normal;font-variant-caps:normal;font-variant-numeric:normal;font-variant-alternates:normal;font-feature-settings:normal;text-indent:0;text-align:start;text-decoration-line:none;text-decoration-style:solid;text-decoration-color:#000;text-transform:none;text-orientation:mixed;white-space:normal;shape-padding:0;isolation:auto;mix-blend-mode:normal;solid-color:#000;solid-opacity:1"/>
      <g>
        <path d="M404.1514 1416.5332a28.1278 28.1278 0 00-23.2705 13.6333 28.1278 28.1278 0 0010.3432 39.0073l117.9507 68.439 56.3877-32.316-146.1079-84.7763a28.1278 28.1278 0 00-15.3032-3.9873zm258.8467 145.2993l-56.3877 32.316 313.2861 181.7783-2.0434 514.0151a28.1278 28.1278 0 1056.2485.2226l2.1753-546.558z" overflow="visible" style="line-height:normal;font-variant-ligatures:normal;font-variant-position:normal;font-variant-caps:normal;font-variant-numeric:normal;font-variant-alternates:normal;font-feature-settings:normal;text-indent:0;text-align:start;text-decoration-line:none;text-decoration-style:solid;text-decoration-color:#000;text-transform:none;text-orientation:mixed;white-space:normal;shape-padding:0;isolation:auto;mix-blend-mode:normal;solid-color:#000;solid-opacity:1"/>
        <path d="M1017.4557 2396.2749c10.0062-17.3313 12.7207-37.9482 7.541-57.2787-5.1795-19.3306-17.8388-35.8282-35.17-45.8344-17.3313-10.0062-37.9483-12.7207-57.2788-7.541-19.3305 5.1796-35.8281 17.8388-45.8343 35.1701-10.0062 17.3312-12.7207 37.9483-7.5411 57.2787 5.1796 19.3305 17.8389 35.8282 35.1701 45.8344 17.3313 10.0062 37.9483 12.7206 57.2788 7.541 19.3305-5.1795 35.8281-17.8389 45.8343-35.1701zm-32.476-18.75a37.9589 37.9589 0 01-23.064 17.6978 37.959 37.959 0 01-28.823-3.7947 37.959 37.959 0 01-17.6979-23.0641 37.9589 37.9589 0 013.7947-28.823 37.9589 37.9589 0 0123.0641-17.6978 37.959 37.959 0 0128.823 3.7947 37.959 37.959 0 0117.6978 23.0641 37.9589 37.9589 0 01-3.7947 28.823z" overflow="visible" style="line-height:normal;font-variant-ligatures:normal;font-variant-position:normal;font-variant-caps:normal;font-variant-numeric:normal;font-variant-alternates:normal;font-feature-settings:normal;text-indent:0;text-align:start;text-decoration-line:none;text-decoration-style:solid;text-decoration-color:#000;text-transform:none;text-orientation:mixed;white-space:normal;shape-padding:0;isolation:auto;mix-blend-mode:normal;solid-color:#000;solid-opacity:1"/>
      </g>
    </g>
    <path d="M769.523 1417.0508a28.1278 28.1278 0 00-15.3243 3.9062l-342.5136 196.3028a28.1278 28.1278 0 1027.9687 48.8027l342.5156-196.3027a28.1278 28.1278 0 00-12.6464-52.709zM267.4859 2039.6484a28.1278 28.1278 0 00-14.9454 52.6172l341.2598 198.4746a28.1278 28.1278 0 1028.2793-48.625l-341.2598-198.4746a28.1278 28.1278 0 00-13.334-3.9922zM1057.5737 1769.207a28.1278 28.1278 0 00-27.7929 28.4336l-1.2539 394.7774a28.1278 28.1278 0 1056.25.1797l1.2539-394.7793a28.1278 28.1278 0 00-28.4571-28.6114z" color="#000" font-family="sans-serif" font-weight="400" overflow="visible" style="line-height:normal;font-variant-ligatures:normal;font-variant-position:normal;font-variant-caps:normal;font-variant-numeric:normal;font-variant-alternates:normal;font-feature-settings:normal;text-indent:0;text-align:start;text-decoration-line:none;text-decoration-style:solid;text-decoration-color:#000;text-transform:none;text-orientation:mixed;white-space:normal;shape-padding:0;isolation:auto;mix-blend-mode:normal;solid-color:#000;solid-opacity:1"/>
  </g>
  <g clip-path="url(#b)" transform="translate(53.3344 -1917)">
    <g fill="#000" stroke="none" color="#000" font-family="sans-serif" font-weight="400">
      <path d="M907.3955 1464.1274a28.1278 28.1278 0 00-13.3623 3.8936l-474.4204 271.396-.7778 360.6328 56.1797 32.6748.7778-360.6416 446.1724-255.2373a28.1278 28.1278 0 00-14.5694-52.7183zm-488.8037 748.5718l-.3677 170.483a28.1278 28.1278 0 0027.6387 28.582 28.1278 28.1278 0 0028.6113-28.4605l.2974-137.9297z" overflow="visible" style="line-height:normal;font-variant-ligatures:normal;font-variant-position:normal;font-variant-caps:normal;font-variant-numeric:normal;font-variant-alternates:normal;font-feature-settings:normal;text-indent:0;text-align:start;text-decoration-line:none;text-decoration-style:solid;text-decoration-color:#000;text-transform:none;text-orientation:mixed;white-space:normal;shape-padding:0;isolation:auto;mix-blend-mode:normal;solid-color:#000;solid-opacity:1"/>
      <path d="M964.2505 1377.4203c-20.0124 0-39.2245 7.9577-53.3754 22.1086s-22.1086 33.363-22.1086 53.3754 7.9577 39.2245 22.1086 53.3754c14.151 14.1509 33.363 22.1086 53.3754 22.1086s39.2245-7.9577 53.3754-22.1086 22.1086-33.363 22.1086-53.3754-7.9577-39.2245-22.1086-53.3754-33.363-22.1086-53.3754-22.1086zm0 37.5a37.9589 37.9589 0 0126.8588 11.1252 37.959 37.959 0 0111.1252 26.8588 37.959 37.959 0 01-11.1252 26.8588 37.9589 37.9589 0 01-26.8588 11.1252 37.9589 37.9589 0 01-26.8588-11.1252 37.959 37.959 0 01-11.1252-26.8588 37.959 37.959 0 0111.1252-26.8588 37.9589 37.9589 0 0126.8588-11.1252zM1239.1738 1849.4209a28.1278 28.1278 0 00-13.355 3.9213l-119.556 68.6822-.2066 64.9892 147.7821-84.898a28.1278 28.1278 0 0010.9337-38.2265 28.1278 28.1278 0 00-25.5982-14.4682zm-1002.7573 45.5976a28.1278 28.1278 0 00-13.0357 52.6157l472.2466 275.1621 312.75-179.6674.205-64.9893L695.8267 2157.81l-444.1274-258.7778a28.1278 28.1278 0 00-15.2827-4.0137z" overflow="visible" style="line-height:normal;font-variant-ligatures:normal;font-variant-position:normal;font-variant-caps:normal;font-variant-numeric:normal;font-variant-alternates:normal;font-feature-settings:normal;text-indent:0;text-align:start;text-decoration-line:none;text-decoration-style:solid;text-decoration-color:#000;text-transform:none;text-orientation:mixed;white-space:normal;shape-padding:0;isolation:auto;mix-blend-mode:normal;solid-color:#000;solid-opacity:1"/>
      <path d="M109.8105 1932.1242c10.0062 17.3312 26.5038 29.9905 45.8343 35.1701 19.3305 5.1796 39.9475 2.4651 57.2787-7.541 17.3313-10.0063 29.9906-26.5039 35.1702-45.8344 5.1796-19.3305 2.4651-39.9475-7.541-57.2787-10.0063-17.3313-26.504-29.9906-45.8344-35.1702-19.3305-5.1796-39.9475-2.465-57.2788 7.5411-17.3312 10.0062-29.9905 26.5038-35.1701 45.8343-5.1796 19.3305-2.4651 39.9475 7.541 57.2788zm32.476-18.75a37.9589 37.9589 0 01-3.7948-28.823 37.959 37.959 0 0117.6978-23.0641 37.959 37.959 0 0128.823-3.7947 37.9589 37.9589 0 0123.0642 17.6978 37.9589 37.9589 0 013.7946 28.823 37.959 37.959 0 01-17.6978 23.064 37.959 37.959 0 01-28.823 3.7948 37.9589 37.9589 0 01-23.064-17.6978z" overflow="visible" style="line-height:normal;font-variant-ligatures:normal;font-variant-position:normal;font-variant-caps:normal;font-variant-numeric:normal;font-variant-alternates:normal;font-feature-settings:normal;text-indent:0;text-align:start;text-decoration-line:none;text-decoration-style:solid;text-decoration-color:#000;text-transform:none;text-orientation:mixed;white-space:normal;shape-padding:0;isolation:auto;mix-blend-mode:normal;solid-color:#000;solid-opacity:1"/>
      <g>
        <path d="M404.1514 1416.5332a28.1278 28.1278 0 00-23.2705 13.6333 28.1278 28.1278 0 0010.3432 39.0073l117.9507 68.439 56.3877-32.316-146.1079-84.7763a28.1278 28.1278 0 00-15.3032-3.9873zm258.8467 145.2993l-56.3877 32.316 313.2861 181.7783-2.0434 514.0151a28.1278 28.1278 0 1056.2485.2226l2.1753-546.558z" overflow="visible" style="line-height:normal;font-variant-ligatures:normal;font-variant-position:normal;font-variant-caps:normal;font-variant-numeric:normal;font-variant-alternates:normal;font-feature-settings:normal;text-indent:0;text-align:start;text-decoration-line:none;text-decoration-style:solid;text-decoration-color:#000;text-transform:none;text-orientation:mixed;white-space:normal;shape-padding:0;isolation:auto;mix-blend-mode:normal;solid-color:#000;solid-opacity:1"/>
        <path d="M1017.4557 2396.2749c10.0062-17.3313 12.7207-37.9482 7.541-57.2787-5.1795-19.3306-17.8388-35.8282-35.17-45.8344-17.3313-10.0062-37.9483-12.7207-57.2788-7.541-19.3305 5.1796-35.8281 17.8388-45.8343 35.1701-10.0062 17.3312-12.7207 37.9483-7.5411 57.2787 5.1796 19.3305 17.8389 35.8282 35.1701 45.8344 17.3313 10.0062 37.9483 12.7206 57.2788 7.541 19.3305-5.1795 35.8281-17.8389 45.8343-35.1701zm-32.476-18.75a37.9589 37.9589 0 01-23.064 17.6978 37.959 37.959 0 01-28.823-3.7947 37.959 37.959 0 01-17.6979-23.0641 37.9589 37.9589 0 013.7947-28.823 37.9589 37.9589 0 0123.0641-17.6978 37.959 37.959 0 0128.823 3.7947 37.959 37.959 0 0117.6978 23.0641 37.9589 37.9589 0 01-3.7947 28.823z" overflow="visible" style="line-height:normal;font-variant-ligatures:normal;font-variant-position:normal;font-variant-caps:normal;font-variant-numeric:normal;font-variant-alternates:normal;font-feature-settings:normal;text-indent:0;text-align:start;text-decoration-line:none;text-decoration-style:solid;text-decoration-color:#000;text-transform:none;text-orientation:mixed;white-space:normal;shape-padding:0;isolation:auto;mix-blend-mode:normal;solid-color:#000;solid-opacity:1"/>
      </g>
    </g>
    <path d="M769.523 1417.0508a28.1278 28.1278 0 00-15.3243 3.9062l-342.5136 196.3028a28.1278 28.1278 0 1027.9687 48.8027l342.5156-196.3027a28.1278 28.1278 0 00-12.6464-52.709zM267.4859 2039.6484a28.1278 28.1278 0 00-14.9454 52.6172l341.2598 198.4746a28.1278 28.1278 0 1028.2793-48.625l-341.2598-198.4746a28.1278 28.1278 0 00-13.334-3.9922zM1057.5737 1769.207a28.1278 28.1278 0 00-27.7929 28.4336l-1.2539 394.7774a28.1278 28.1278 0 1056.25.1797l1.2539-394.7793a28.1278 28.1278 0 00-28.4571-28.6114z" color="#000" font-family="sans-serif" font-weight="400" overflow="visible" style="line-height:normal;font-variant-ligatures:normal;font-variant-position:normal;font-variant-caps:normal;font-variant-numeric:normal;font-variant-alternates:normal;font-feature-settings:normal;text-indent:0;text-align:start;text-decoration-line:none;text-decoration-style:solid;text-decoration-color:#000;text-transform:none;text-orientation:mixed;white-space:normal;shape-padding:0;isolation:auto;mix-blend-mode:normal;solid-color:#000;solid-opacity:1"/>
  </g>
  <g clip-path="url(#c)" transform="translate(1159.336 -1278.4496)">
    <g fill="#000" stroke="none" color="#000" font-family="sans-serif" font-weight="400">
      <path d="M907.3955 1464.1274a28.1278 28.1278 0 00-13.3623 3.8936l-474.4204 271.396-.7778 360.6328 56.1797 32.6748.7778-360.6416 446.1724-255.2373a28.1278 28.1278 0 00-14.5694-52.7183zm-488.8037 748.5718l-.3677 170.483a28.1278 28.1278 0 0027.6387 28.582 28.1278 28.1278 0 0028.6113-28.4605l.2974-137.9297z" overflow="visible" style="line-height:normal;font-variant-ligatures:normal;font-variant-position:normal;font-variant-caps:normal;font-variant-numeric:normal;font-variant-alternates:normal;font-feature-settings:normal;text-indent:0;text-align:start;text-decoration-line:none;text-decoration-style:solid;text-decoration-color:#000;text-transform:none;text-orientation:mixed;white-space:normal;shape-padding:0;isolation:auto;mix-blend-mode:normal;solid-color:#000;solid-opacity:1"/>
      <path d="M964.2505 1377.4203c-20.0124 0-39.2245 7.9577-53.3754 22.1086s-22.1086 33.363-22.1086 53.3754 7.9577 39.2245 22.1086 53.3754c14.151 14.1509 33.363 22.1086 53.3754 22.1086s39.2245-7.9577 53.3754-22.1086 22.1086-33.363 22.1086-53.3754-7.9577-39.2245-22.1086-53.3754-33.363-22.1086-53.3754-22.1086zm0 37.5a37.9589 37.9589 0 0126.8588 11.1252 37.959 37.959 0 0111.1252 26.8588 37.959 37.959 0 01-11.1252 26.8588 37.9589 37.9589 0 01-26.8588 11.1252 37.9589 37.9589 0 01-26.8588-11.1252 37.959 37.959 0 01-11.1252-26.8588 37.959 37.959 0 0111.1252-26.8588 37.9589 37.9589 0 0126.8588-11.1252zM1239.1738 1849.4209a28.1278 28.1278 0 00-13.355 3.9213l-119.556 68.6822-.2066 64.9892 147.7821-84.898a28.1278 28.1278 0 0010.9337-38.2265 28.1278 28.1278 0 00-25.5982-14.4682zm-1002.7573 45.5976a28.1278 28.1278 0 00-13.0357 52.6157l472.2466 275.1621 312.75-179.6674.205-64.9893L695.8267 2157.81l-444.1274-258.7778a28.1278 28.1278 0 00-15.2827-4.0137z" overflow="visible" style="line-height:normal;font-variant-ligatures:normal;font-variant-position:normal;font-variant-caps:normal;font-variant-numeric:normal;font-variant-alternates:normal;font-feature-settings:normal;text-indent:0;text-align:start;text-decoration-line:none;text-decoration-style:solid;text-decoration-color:#000;text-transform:none;text-orientation:mixed;white-space:normal;shape-padding:0;isolation:auto;mix-blend-mode:normal;solid-color:#000;solid-opacity:1"/>
      <path d="M109.8105 1932.1242c10.0062 17.3312 26.5038 29.9905 45.8343 35.1701 19.3305 5.1796 39.9475 2.4651 57.2787-7.541 17.3313-10.0063 29.9906-26.5039 35.1702-45.8344 5.1796-19.3305 2.4651-39.9475-7.541-57.2787-10.0063-17.3313-26.504-29.9906-45.8344-35.1702-19.3305-5.1796-39.9475-2.465-57.2788 7.5411-17.3312 10.0062-29.9905 26.5038-35.1701 45.8343-5.1796 19.3305-2.4651 39.9475 7.541 57.2788zm32.476-18.75a37.9589 37.9589 0 01-3.7948-28.823 37.959 37.959 0 0117.6978-23.0641 37.959 37.959 0 0128.823-3.7947 37.9589 37.9589 0 0123.0642 17.6978 37.9589 37.9589 0 013.7946 28.823 37.959 37.959 0 01-17.6978 23.064 37.959 37.959 0 01-28.823 3.7948 37.9589 37.9589 0 01-23.064-17.6978z" overflow="visible" style="line-height:normal;font-variant-ligatures:normal;font-variant-position:normal;font-variant-caps:normal;font-variant-numeric:normal;font-variant-alternates:normal;font-feature-settings:normal;text-indent:0;text-align:start;text-decoration-line:none;text-decoration-style:solid;text-decoration-color:#000;text-transform:none;text-orientation:mixed;white-space:normal;shape-padding:0;isolation:auto;mix-blend-mode:normal;solid-color:#000;solid-opacity:1"/>
      <g>
        <path d="M404.1514 1416.5332a28.1278 28.1278 0 00-23.2705 13.6333 28.1278 28.1278 0 0010.3432 39.0073l117.9507 68.439 56.3877-32.316-146.1079-84.7763a28.1278 28.1278 0 00-15.3032-3.9873zm258.8467 145.2993l-56.3877 32.316 313.2861 181.7783-2.0434 514.0151a28.1278 28.1278 0 1056.2485.2226l2.1753-546.558z" overflow="visible" style="line-height:normal;font-variant-ligatures:normal;font-variant-position:normal;font-variant-caps:normal;font-variant-numeric:normal;font-variant-alternates:normal;font-feature-settings:normal;text-indent:0;text-align:start;text-decoration-line:none;text-decoration-style:solid;text-decoration-color:#000;text-transform:none;text-orientation:mixed;white-space:normal;shape-padding:0;isolation:auto;mix-blend-mode:normal;solid-color:#000;solid-opacity:1"/>
        <path d="M1017.4557 2396.2749c10.0062-17.3313 12.7207-37.9482 7.541-57.2787-5.1795-19.3306-17.8388-35.8282-35.17-45.8344-17.3313-10.0062-37.9483-12.7207-57.2788-7.541-19.3305 5.1796-35.8281 17.8388-45.8343 35.1701-10.0062 17.3312-12.7207 37.9483-7.5411 57.2787 5.1796 19.3305 17.8389 35.8282 35.1701 45.8344 17.3313 10.0062 37.9483 12.7206 57.2788 7.541 19.3305-5.1795 35.8281-17.8389 45.8343-35.1701zm-32.476-18.75a37.9589 37.9589 0 01-23.064 17.6978 37.959 37.959 0 01-28.823-3.7947 37.959 37.959 0 01-17.6979-23.0641 37.9589 37.9589 0 013.7947-28.823 37.9589 37.9589 0 0123.0641-17.6978 37.959 37.959 0 0128.823 3.7947 37.959 37.959 0 0117.6978 23.0641 37.9589 37.9589 0 01-3.7947 28.823z" overflow="visible" style="line-height:normal;font-variant-ligatures:normal;font-variant-position:normal;font-variant-caps:normal;font-variant-numeric:normal;font-variant-alternates:normal;font-feature-settings:normal;text-indent:0;text-align:start;text-decoration-line:none;text-decoration-style:solid;text-decoration-color:#000;text-transform:none;text-orientation:mixed;white-space:normal;shape-padding:0;isolation:auto;mix-blend-mode:normal;solid-color:#000;solid-opacity:1"/>
      </g>
    </g>
    <path d="M769.523 1417.0508a28.1278 28.1278 0 00-15.3243 3.9062l-342.5136 196.3028a28.1278 28.1278 0 1027.9687 48.8027l342.5156-196.3027a28.1278 28.1278 0 00-12.6464-52.709zM267.4859 2039.6484a28.1278 28.1278 0 00-14.9454 52.6172l341.2598 198.4746a28.1278 28.1278 0 1028.2793-48.625l-341.2598-198.4746a28.1278 28.1278 0 00-13.334-3.9922zM1057.5737 1769.207a28.1278 28.1278 0 00-27.7929 28.4336l-1.2539 394.7774a28.1278 28.1278 0 1056.25.1797l1.2539-394.7793a28.1278 28.1278 0 00-28.4571-28.6114z" color="#000" font-family="sans-serif" font-weight="400" overflow="visible" style="line-height:normal;font-variant-ligatures:normal;font-variant-position:normal;font-variant-caps:normal;font-variant-numeric:normal;font-variant-alternates:normal;font-feature-settings:normal;text-indent:0;text-align:start;text-decoration-line:none;text-decoration-style:solid;text-decoration-color:#000;text-transform:none;text-orientation:mixed;white-space:normal;shape-padding:0;isolation:auto;mix-blend-mode:normal;solid-color:#000;solid-opacity:1"/>
  </g>
  <g clip-path="url(#d)" transform="translate(-1052.6672 -1278.4496)">
    <g fill="#000" stroke="none" color="#000" font-family="sans-serif" font-weight="400">
      <path d="M907.3955 1464.1274a28.1278 28.1278 0 00-13.3623 3.8936l-474.4204 271.396-.7778 360.6328 56.1797 32.6748.7778-360.6416 446.1724-255.2373a28.1278 28.1278 0 00-14.5694-52.7183zm-488.8037 748.5718l-.3677 170.483a28.1278 28.1278 0 0027.6387 28.582 28.1278 28.1278 0 0028.6113-28.4605l.2974-137.9297z" overflow="visible" style="line-height:normal;font-variant-ligatures:normal;font-variant-position:normal;font-variant-caps:normal;font-variant-numeric:normal;font-variant-alternates:normal;font-feature-settings:normal;text-indent:0;text-align:start;text-decoration-line:none;text-decoration-style:solid;text-decoration-color:#000;text-transform:none;text-orientation:mixed;white-space:normal;shape-padding:0;isolation:auto;mix-blend-mode:normal;solid-color:#000;solid-opacity:1"/>
      <path d="M964.2505 1377.4203c-20.0124 0-39.2245 7.9577-53.3754 22.1086s-22.1086 33.363-22.1086 53.3754 7.9577 39.2245 22.1086 53.3754c14.151 14.1509 33.363 22.1086 53.3754 22.1086s39.2245-7.9577 53.3754-22.1086 22.1086-33.363 22.1086-53.3754-7.9577-39.2245-22.1086-53.3754-33.363-22.1086-53.3754-22.1086zm0 37.5a37.9589 37.9589 0 0126.8588 11.1252 37.959 37.959 0 0111.1252 26.8588 37.959 37.959 0 01-11.1252 26.8588 37.9589 37.9589 0 01-26.8588 11.1252 37.9589 37.9589 0 01-26.8588-11.1252 37.959 37.959 0 01-11.1252-26.8588 37.959 37.959 0 0111.1252-26.8588 37.9589 37.9589 0 0126.8588-11.1252zM1239.1738 1849.4209a28.1278 28.1278 0 00-13.355 3.9213l-119.556 68.6822-.2066 64.9892 147.7821-84.898a28.1278 28.1278 0 0010.9337-38.2265 28.1278 28.1278 0 00-25.5982-14.4682zm-1002.7573 45.5976a28.1278 28.1278 0 00-13.0357 52.6157l472.2466 275.1621 312.75-179.6674.205-64.9893L695.8267 2157.81l-444.1274-258.7778a28.1278 28.1278 0 00-15.2827-4.0137z" overflow="visible" style="line-height:normal;font-variant-ligatures:normal;font-variant-position:normal;font-variant-caps:normal;font-variant-numeric:normal;font-variant-alternates:normal;font-feature-settings:normal;text-indent:0;text-align:start;text-decoration-line:none;text-decoration-style:solid;text-decoration-color:#000;text-transform:none;text-orientation:mixed;white-space:normal;shape-padding:0;isolation:auto;mix-blend-mode:normal;solid-color:#000;solid-opacity:1"/>
      <path d="M109.8105 1932.1242c10.0062 17.3312 26.5038 29.9905 45.8343 35.1701 19.3305 5.1796 39.9475 2.4651 57.2787-7.541 17.3313-10.0063 29.9906-26.5039 35.1702-45.8344 5.1796-19.3305 2.4651-39.9475-7.541-57.2787-10.0063-17.3313-26.504-29.9906-45.8344-35.1702-19.3305-5.1796-39.9475-2.465-57.2788 7.5411-17.3312 10.0062-29.9905 26.5038-35.1701 45.8343-5.1796 19.3305-2.4651 39.9475 7.541 57.2788zm32.476-18.75a37.9589 37.9589 0 01-3.7948-28.823 37.959 37.959 0 0117.6978-23.0641 37.959 37.959 0 0128.823-3.7947 37.9589 37.9589 0 0123.0642 17.6978 37.9589 37.9589 0 013.7946 28.823 37.959 37.959 0 01-17.6978 23.064 37.959 37.959 0 01-28.823 3.7948 37.9589 37.9589 0 01-23.064-17.6978z" overflow="visible" style="line-height:normal;font-variant-ligatures:normal;font-variant-position:normal;font-variant-caps:normal;font-variant-numeric:normal;font-variant-alternates:normal;font-feature-settings:normal;text-indent:0;text-align:start;text-decoration-line:none;text-decoration-style:solid;text-decoration-color:#000;text-transform:none;text-orientation:mixed;white-space:normal;shape-padding:0;isolation:auto;mix-blend-mode:normal;solid-color:#000;solid-opacity:1"/>
      <g>
        <path d="M404.1514 1416.5332a28.1278 28.1278 0 00-23.2705 13.6333 28.1278 28.1278 0 0010.3432 39.0073l117.9507 68.439 56.3877-32.316-146.1079-84.7763a28.1278 28.1278 0 00-15.3032-3.9873zm258.8467 145.2993l-56.3877 32.316 313.2861 181.7783-2.0434 514.0151a28.1278 28.1278 0 1056.2485.2226l2.1753-546.558z" overflow="visible" style="line-height:normal;font-variant-ligatures:normal;font-variant-position:normal;font-variant-caps:normal;font-variant-numeric:normal;font-variant-alternates:normal;font-feature-settings:normal;text-indent:0;text-align:start;text-decoration-line:none;text-decoration-style:solid;text-decoration-color:#000;text-transform:none;text-orientation:mixed;white-space:normal;shape-padding:0;isolation:auto;mix-blend-mode:normal;solid-color:#000;solid-opacity:1"/>
        <path d="M1017.4557 2396.2749c10.0062-17.3313 12.7207-37.9482 7.541-57.2787-5.1795-19.3306-17.8388-35.8282-35.17-45.8344-17.3313-10.0062-37.9483-12.7207-57.2788-7.541-19.3305 5.1796-35.8281 17.8388-45.8343 35.1701-10.0062 17.3312-12.7207 37.9483-7.5411 57.2787 5.1796 19.3305 17.8389 35.8282 35.1701 45.8344 17.3313 10.0062 37.9483 12.7206 57.2788 7.541 19.3305-5.1795 35.8281-17.8389 45.8343-35.1701zm-32.476-18.75a37.9589 37.9589 0 01-23.064 17.6978 37.959 37.959 0 01-28.823-3.7947 37.959 37.959 0 01-17.6979-23.0641 37.9589 37.9589 0 013.7947-28.823 37.9589 37.9589 0 0123.0641-17.6978 37.959 37.959 0 0128.823 3.7947 37.959 37.959 0 0117.6978 23.0641 37.9589 37.9589 0 01-3.7947 28.823z" overflow="visible" style="line-height:normal;font-variant-ligatures:normal;font-variant-position:normal;font-variant-caps:normal;font-variant-numeric:normal;font-variant-alternates:normal;font-feature-settings:normal;text-indent:0;text-align:start;text-decoration-line:none;text-decoration-style:solid;text-decoration-color:#000;text-transform:none;text-orientation:mixed;white-space:normal;shape-padding:0;isolation:auto;mix-blend-mode:normal;solid-color:#000;solid-opacity:1"/>
      </g>
    </g>
    <path d="M769.523 1417.0508a28.1278 28.1278 0 00-15.3243 3.9062l-342.5136 196.3028a28.1278 28.1278 0 1027.9687 48.8027l342.5156-196.3027a28.1278 28.1278 0 00-12.6464-52.709zM267.4859 2039.6484a28.1278 28.1278 0 00-14.9454 52.6172l341.2598 198.4746a28.1278 28.1278 0 1028.2793-48.625l-341.2598-198.4746a28.1278 28.1278 0 00-13.334-3.9922zM1057.5737 1769.207a28.1278 28.1278 0 00-27.7929 28.4336l-1.2539 394.7774a28.1278 28.1278 0 1056.25.1797l1.2539-394.7793a28.1278 28.1278 0 00-28.4571-28.6114z" color="#000" font-family="sans-serif" font-weight="400" overflow="visible" style="line-height:normal;font-variant-ligatures:normal;font-variant-position:normal;font-variant-caps:normal;font-variant-numeric:normal;font-variant-alternates:normal;font-feature-settings:normal;text-indent:0;text-align:start;text-decoration-line:none;text-decoration-style:solid;text-decoration-color:#000;text-transform:none;text-orientation:mixed;white-space:normal;shape-padding:0;isolation:auto;mix-blend-mode:normal;solid-color:#000;solid-opacity:1"/>
  </g>

</pattern>
</defs>
<rect fill="url(#wiscio)" width="100%" height="100%" style="fill-opacity: .25;"/>
</svg>
