<svg xmlns="http://www.w3.org/2000/svg" version="1.0" viewBox="0 0 1368 1278">
  <defs/>
  <g fill="#000" stroke="none" color="#000" font-family="sans-serif" font-weight="400">
    <path d="M927.73 186.13a28.13 28.13 0 00-13.36 3.9L439.95 461.41l-.78 360.63 56.18 32.67.78-360.64L942.3 238.85a28.13 28.13 0 00-14.57-52.72zM438.93 934.7l-.37 170.48a28.13 28.13 0 0027.64 28.58 28.13 28.13 0 0028.6-28.46l.3-137.93-56.18-32.67z" overflow="visible" style="line-height:normal;font-variant-ligatures:normal;font-variant-position:normal;font-variant-caps:normal;font-variant-numeric:normal;font-variant-alternates:normal;font-feature-settings:normal;text-indent:0;text-align:start;text-decoration-line:none;text-decoration-style:solid;text-decoration-color:#000;text-transform:none;text-orientation:mixed;white-space:normal;shape-padding:0;isolation:auto;mix-blend-mode:normal;solid-color:#000;solid-opacity:1"/>
    <path d="M984.58 99.42a75.5 75.5 0 00-75.48 75.48 75.5 75.5 0 0075.48 75.49 75.5 75.5 0 0075.49-75.49 75.5 75.5 0 00-75.49-75.48zm0 37.5a37.96 37.96 0 0137.99 37.98 37.96 37.96 0 01-37.99 37.99 37.96 37.96 0 01-37.98-37.99 37.96 37.96 0 0137.98-37.98zM1259.5 571.42a28.13 28.13 0 00-13.35 3.92l-119.55 68.68-.21 65 147.78-84.9a28.13 28.13 0 0010.93-38.23 28.13 28.13 0 00-25.6-14.47zm-1002.75 45.6a28.13 28.13 0 00-13.04 52.61L715.96 944.8l312.75-179.67.2-64.99-312.75 179.67-444.13-258.78a28.13 28.13 0 00-15.28-4.01z" overflow="visible" style="line-height:normal;font-variant-ligatures:normal;font-variant-position:normal;font-variant-caps:normal;font-variant-numeric:normal;font-variant-alternates:normal;font-feature-settings:normal;text-indent:0;text-align:start;text-decoration-line:none;text-decoration-style:solid;text-decoration-color:#000;text-transform:none;text-orientation:mixed;white-space:normal;shape-padding:0;isolation:auto;mix-blend-mode:normal;solid-color:#000;solid-opacity:1"/>
    <path d="M130.14 654.12a75.5 75.5 0 00103.12 27.63 75.5 75.5 0 0027.63-103.11 75.5 75.5 0 00-103.12-27.63 75.5 75.5 0 00-27.63 103.11zm32.48-18.75a37.96 37.96 0 0113.9-51.88 37.96 37.96 0 0151.89 13.9 37.96 37.96 0 01-13.9 51.89 37.96 37.96 0 01-51.9-13.9z" overflow="visible" style="line-height:normal;font-variant-ligatures:normal;font-variant-position:normal;font-variant-caps:normal;font-variant-numeric:normal;font-variant-alternates:normal;font-feature-settings:normal;text-indent:0;text-align:start;text-decoration-line:none;text-decoration-style:solid;text-decoration-color:#000;text-transform:none;text-orientation:mixed;white-space:normal;shape-padding:0;isolation:auto;mix-blend-mode:normal;solid-color:#000;solid-opacity:1"/>
    <g>
      <path d="M424.48 138.53a28.13 28.13 0 00-23.27 13.64 28.13 28.13 0 0010.35 39l117.95 68.44 56.39-32.31-146.11-84.78a28.13 28.13 0 00-15.3-3.99zm258.85 145.3l-56.39 32.32 313.29 181.78-2.04 514.01a28.13 28.13 0 1056.24.22l2.18-546.55-313.28-181.78z" overflow="visible" style="line-height:normal;font-variant-ligatures:normal;font-variant-position:normal;font-variant-caps:normal;font-variant-numeric:normal;font-variant-alternates:normal;font-feature-settings:normal;text-indent:0;text-align:start;text-decoration-line:none;text-decoration-style:solid;text-decoration-color:#000;text-transform:none;text-orientation:mixed;white-space:normal;shape-padding:0;isolation:auto;mix-blend-mode:normal;solid-color:#000;solid-opacity:1"/>
      <path d="M1037.79 1118.27a75.5 75.5 0 00-27.63-103.1 75.5 75.5 0 00-103.11 27.62 75.5 75.5 0 0027.63 103.11 75.5 75.5 0 00103.1-27.63zm-32.48-18.75a37.96 37.96 0 01-51.88 13.9 37.96 37.96 0 01-13.9-51.88 37.96 37.96 0 0151.88-13.9 37.96 37.96 0 0113.9 51.88z" overflow="visible" style="line-height:normal;font-variant-ligatures:normal;font-variant-position:normal;font-variant-caps:normal;font-variant-numeric:normal;font-variant-alternates:normal;font-feature-settings:normal;text-indent:0;text-align:start;text-decoration-line:none;text-decoration-style:solid;text-decoration-color:#000;text-transform:none;text-orientation:mixed;white-space:normal;shape-padding:0;isolation:auto;mix-blend-mode:normal;solid-color:#000;solid-opacity:1"/>
    </g>
  </g>
  <path d="M789.86 139.05a28.13 28.13 0 00-15.33 3.9L432.02 339.27a28.13 28.13 0 1027.97 48.8l342.51-196.3a28.13 28.13 0 00-12.64-52.7zM287.82 761.65a28.13 28.13 0 00-14.95 52.62l341.26 198.47a28.13 28.13 0 1028.28-48.62L301.15 765.64a28.13 28.13 0 00-13.33-4zM1077.9 491.2a28.13 28.13 0 00-27.79 28.44l-1.25 394.78a28.13 28.13 0 1056.25.18l1.25-394.78a28.13 28.13 0 00-28.45-28.61z" color="#000" font-family="sans-serif" font-weight="400" overflow="visible" style="line-height:normal;font-variant-ligatures:normal;font-variant-position:normal;font-variant-caps:normal;font-variant-numeric:normal;font-variant-alternates:normal;font-feature-settings:normal;text-indent:0;text-align:start;text-decoration-line:none;text-decoration-style:solid;text-decoration-color:#000;text-transform:none;text-orientation:mixed;white-space:normal;shape-padding:0;isolation:auto;mix-blend-mode:normal;solid-color:#000;solid-opacity:1"/>
</svg>
